<svg width="22" height="22" viewBox="0 0 22 22" fill="none" xmlns="http://www.w3.org/2000/svg">
<g filter="url(#filter0_d_2482_4973)">
<path d="M11.0016 1.1001C8.5641 1.10184 6.21337 2.00481 4.40156 3.63532V1.9251C4.40156 1.70629 4.31464 1.49645 4.15993 1.34173C4.00521 1.18702 3.79537 1.1001 3.57656 1.1001C3.35776 1.1001 3.14792 1.18702 2.9932 1.34173C2.83848 1.49645 2.75156 1.70629 2.75156 1.9251V4.4001C2.75156 5.05651 3.01232 5.68603 3.47647 6.15019C3.94063 6.61434 4.57015 6.8751 5.22656 6.8751H7.70156C7.92037 6.8751 8.13021 6.78818 8.28493 6.63346C8.43964 6.47874 8.52656 6.2689 8.52656 6.0501C8.52656 5.83129 8.43964 5.62145 8.28493 5.46673C8.13021 5.31202 7.92037 5.2251 7.70156 5.2251H5.22656C5.19874 5.22097 5.17119 5.21519 5.14406 5.20777C6.48842 3.85381 8.26102 3.00839 10.1593 2.81582C12.0576 2.62326 13.9638 3.09549 15.5527 4.15191C17.1416 5.20832 18.3145 6.78343 18.8714 8.60838C19.4283 10.4333 19.3345 12.395 18.6061 14.1585C17.8777 15.922 16.5598 17.378 14.8774 18.278C13.195 19.1781 11.2524 19.4663 9.38111 19.0935C7.50986 18.7208 5.826 17.7101 4.61693 16.2341C3.40787 14.758 2.74857 12.9081 2.75156 11.0001C2.75156 10.7813 2.66464 10.5715 2.50993 10.4167C2.35521 10.262 2.14537 10.1751 1.92656 10.1751C1.70776 10.1751 1.49792 10.262 1.3432 10.4167C1.18848 10.5715 1.10156 10.7813 1.10156 11.0001C1.10156 12.9581 1.68219 14.8722 2.77001 16.5002C3.85784 18.1283 5.40401 19.3972 7.213 20.1465C9.02198 20.8958 11.0125 21.0919 12.933 20.7099C14.8534 20.3279 16.6174 19.385 18.0019 18.0005C19.3865 16.6159 20.3293 14.8519 20.7113 12.9315C21.0933 11.0111 20.8973 9.02052 20.148 7.21153C19.3987 5.40254 18.1298 3.85637 16.5017 2.76855C14.8737 1.68072 12.9596 1.1001 11.0016 1.1001V1.1001Z" fill="url(#paint0_linear_2482_4973)"/>
</g>
<g filter="url(#filter1_d_2482_4973)">
<path d="M11.0008 6.05029C10.782 6.05029 10.5721 6.13721 10.4174 6.29193C10.2627 6.44665 10.1758 6.65649 10.1758 6.87529V11.0003C10.1758 11.2191 10.2628 11.4289 10.4175 11.5836L12.8925 14.0586C13.0481 14.2088 13.2565 14.292 13.4728 14.2901C13.6891 14.2882 13.896 14.2015 14.049 14.0485C14.202 13.8956 14.2887 13.6886 14.2906 13.4723C14.2925 13.256 14.2093 13.0476 14.0591 12.892L11.8258 10.6587V6.87529C11.8258 6.65649 11.7389 6.44665 11.5841 6.29193C11.4294 6.13721 11.2196 6.05029 11.0008 6.05029Z" fill="url(#paint1_linear_2482_4973)"/>
</g>
<defs>
<filter id="filter0_d_2482_4973" x="-43.8984" y="-28.8999" width="109.801" height="109.8" filterUnits="userSpaceOnUse" color-interpolation-filters="sRGB">
<feFlood flood-opacity="0" result="BackgroundImageFix"/>
<feColorMatrix in="SourceAlpha" type="matrix" values="0 0 0 0 0 0 0 0 0 0 0 0 0 0 0 0 0 0 127 0" result="hardAlpha"/>
<feOffset dy="15"/>
<feGaussianBlur stdDeviation="22.5"/>
<feComposite in2="hardAlpha" operator="out"/>
<feColorMatrix type="matrix" values="0 0 0 0 0 0 0 0 0 0 0 0 0 0 0 0 0 0 0.1 0"/>
<feBlend mode="normal" in2="BackgroundImageFix" result="effect1_dropShadow_2482_4973"/>
<feBlend mode="normal" in="SourceGraphic" in2="effect1_dropShadow_2482_4973" result="shape"/>
</filter>
<filter id="filter1_d_2482_4973" x="-34.8242" y="-23.9497" width="94.1133" height="98.2397" filterUnits="userSpaceOnUse" color-interpolation-filters="sRGB">
<feFlood flood-opacity="0" result="BackgroundImageFix"/>
<feColorMatrix in="SourceAlpha" type="matrix" values="0 0 0 0 0 0 0 0 0 0 0 0 0 0 0 0 0 0 127 0" result="hardAlpha"/>
<feOffset dy="15"/>
<feGaussianBlur stdDeviation="22.5"/>
<feComposite in2="hardAlpha" operator="out"/>
<feColorMatrix type="matrix" values="0 0 0 0 0 0 0 0 0 0 0 0 0 0 0 0 0 0 0.1 0"/>
<feBlend mode="normal" in2="BackgroundImageFix" result="effect1_dropShadow_2482_4973"/>
<feBlend mode="normal" in="SourceGraphic" in2="effect1_dropShadow_2482_4973" result="shape"/>
</filter>
<linearGradient id="paint0_linear_2482_4973" x1="0.952337" y1="1.1001" x2="20.4352" y2="1.1001" gradientUnits="userSpaceOnUse">
<stop stop-color="#0600FF"/>
<stop offset="1" stop-color="#FF0097"/>
</linearGradient>
<linearGradient id="paint1_linear_2482_4973" x1="10.1448" y1="6.05029" x2="14.1937" y2="6.05029" gradientUnits="userSpaceOnUse">
<stop stop-color="#0600FF"/>
<stop offset="1" stop-color="#FF0097"/>
</linearGradient>
</defs>
</svg>
