<svg width="28" height="28" viewBox="0 0 28 28" fill="none" xmlns="http://www.w3.org/2000/svg">
<path d="M14 0.5C10.6762 0.50237 7.47065 1.7337 5 3.95712V1.625C5 1.32663 4.88147 1.04048 4.6705 0.829505C4.45952 0.618526 4.17337 0.5 3.875 0.5C3.57663 0.5 3.29048 0.618526 3.0795 0.829505C2.86853 1.04048 2.75 1.32663 2.75 1.625V5C2.75 5.89511 3.10558 6.75355 3.73851 7.38649C4.37145 8.01942 5.22989 8.375 6.125 8.375H9.5C9.79837 8.375 10.0845 8.25647 10.2955 8.0455C10.5065 7.83452 10.625 7.54837 10.625 7.25C10.625 6.95163 10.5065 6.66548 10.2955 6.4545C10.0845 6.24353 9.79837 6.125 9.5 6.125H6.125C6.08706 6.11938 6.04949 6.11149 6.0125 6.10138C7.84571 4.25506 10.2629 3.10221 12.8514 2.83962C15.44 2.57704 18.0395 3.22099 20.2061 4.66156C22.3727 6.10212 23.9722 8.25001 24.7316 10.7386C25.4909 13.2271 25.3631 15.9021 24.3698 18.3069C23.3765 20.7117 21.5794 22.6972 19.2852 23.9245C16.991 25.1518 14.342 25.5448 11.7903 25.0365C9.23859 24.5282 6.94241 23.15 5.29369 21.1372C3.64497 19.1244 2.74592 16.6018 2.75 14C2.75 13.7016 2.63147 13.4155 2.4205 13.2045C2.20952 12.9935 1.92337 12.875 1.625 12.875C1.32663 12.875 1.04048 12.9935 0.829505 13.2045C0.618526 13.4155 0.5 13.7016 0.5 14C0.5 16.67 1.29176 19.2801 2.77516 21.5002C4.25856 23.7203 6.36697 25.4506 8.83377 26.4724C11.3006 27.4942 14.015 27.7615 16.6337 27.2406C19.2525 26.7197 21.6579 25.434 23.5459 23.5459C25.434 21.6579 26.7197 19.2525 27.2406 16.6337C27.7615 14.015 27.4942 11.3006 26.4724 8.83377C25.4506 6.36697 23.7203 4.25856 21.5002 2.77516C19.2801 1.29176 16.67 0.5 14 0.5V0.5Z" fill="#FC785A"/>
<path d="M14 7.25C13.7016 7.25 13.4155 7.36853 13.2045 7.57951C12.9935 7.79048 12.875 8.07663 12.875 8.375V14C12.8751 14.2983 12.9936 14.5844 13.2046 14.7954L16.5796 18.1704C16.7918 18.3753 17.076 18.4887 17.371 18.4861C17.6659 18.4836 17.9481 18.3653 18.1567 18.1567C18.3653 17.9481 18.4836 17.6659 18.4861 17.371C18.4887 17.076 18.3753 16.7918 18.1704 16.5796L15.125 13.5343V8.375C15.125 8.07663 15.0065 7.79048 14.7955 7.57951C14.5845 7.36853 14.2984 7.25 14 7.25Z" fill="#FC785A"/>
</svg>
