<svg width="20" height="20" viewBox="0 0 20 20" fill="none" xmlns="http://www.w3.org/2000/svg">
<g clip-path="url(#clip0_2482_7813)">
<path d="M11.7271 19.2973L15.6696 15.354C15.9044 15.1196 16.0365 14.8016 16.0368 14.4698C16.0371 14.138 15.9056 13.8197 15.6713 13.5848C15.4369 13.35 15.1188 13.2179 14.787 13.2176C14.4552 13.2173 14.1369 13.3488 13.9021 13.5832L11.2488 16.294V2.51318H14.7779C15.1094 2.51318 15.4274 2.38149 15.6618 2.14707C15.8962 1.91265 16.0279 1.5947 16.0279 1.26318C16.0279 0.931662 15.8962 0.61372 15.6618 0.3793C15.4274 0.14488 15.1094 0.0131836 14.7779 0.0131836H5.21875C4.88723 0.0131836 4.56929 0.14488 4.33487 0.3793C4.10045 0.61372 3.96875 0.931662 3.96875 1.26318C3.96875 1.5947 4.10045 1.91265 4.33487 2.14707C4.56929 2.38149 4.88723 2.51318 5.21875 2.51318H8.74875V16.2407L6.09375 13.5832C5.858 13.3555 5.54225 13.2295 5.2145 13.2323C4.88675 13.2352 4.57324 13.3666 4.34148 13.5984C4.10972 13.8302 3.97826 14.1437 3.97541 14.4714C3.97256 14.7992 4.09855 15.1149 4.32625 15.3507L8.26959 19.2948C8.72842 19.7524 9.34983 20.0096 9.99782 20.01C10.6458 20.0105 11.2676 19.7542 11.7271 19.2973Z" fill="url(#paint0_linear_2482_7813)"/>
</g>
<defs>
<linearGradient id="paint0_linear_2482_7813" x1="3.96875" y1="9.70862" x2="15.4017" y2="9.70862" gradientUnits="userSpaceOnUse">
<stop stop-color="#0600FF"/>
<stop offset="1" stop-color="#FF0097"/>
</linearGradient>
<clipPath id="clip0_2482_7813">
<rect width="20" height="20" fill="white" transform="translate(20 20) rotate(-180)"/>
</clipPath>
</defs>
</svg>
