<svg width="22" height="22" viewBox="0 0 22 22" fill="none" xmlns="http://www.w3.org/2000/svg">
<path d="M21.9994 21.0834C21.9994 21.3265 21.9029 21.5596 21.731 21.7315C21.5591 21.9034 21.326 22 21.0829 22H0.918059C0.674966 22 0.44183 21.9034 0.269938 21.7315C0.0980453 21.5596 0.00147711 21.3265 0.00147711 21.0834C0.00147711 20.8403 0.0980453 20.6071 0.269938 20.4353C0.44183 20.2634 0.674966 20.1668 0.918059 20.1668H21.0829C21.326 20.1668 21.5591 20.2634 21.731 20.4353C21.9029 20.6071 21.9994 20.8403 21.9994 21.0834ZM0.268202 7.84023C0.0706995 7.47388 -0.0208007 7.05974 0.0039706 6.64428C0.0287419 6.22883 0.168804 5.82849 0.408439 5.48821C0.800057 4.91361 1.32451 4.44196 1.9373 4.1133L8.81258 0.534859C9.48834 0.18346 10.2388 0 11.0005 0C11.7621 0 12.5126 0.18346 13.1883 0.534859L20.0627 4.11605C20.6755 4.44471 21.1999 4.91636 21.5916 5.49096C21.8312 5.83124 21.9713 6.23158 21.996 6.64704C22.0208 7.06249 21.9293 7.47663 21.7318 7.84298C21.5192 8.24521 21.2003 8.5814 20.8098 8.81494C20.4193 9.04848 19.9723 9.17042 19.5173 9.16748H19.2497V16.5003H20.1663C20.4094 16.5003 20.6425 16.5969 20.8144 16.7688C20.9863 16.9407 21.0829 17.1739 21.0829 17.417C21.0829 17.6601 20.9863 17.8932 20.8144 18.0651C20.6425 18.237 20.4094 18.3336 20.1663 18.3336H1.83464C1.59155 18.3336 1.35841 18.237 1.18652 18.0651C1.01463 17.8932 0.918059 17.6601 0.918059 17.417C0.918059 17.1739 1.01463 16.9407 1.18652 16.7688C1.35841 16.5969 1.59155 16.5003 1.83464 16.5003H2.75122V9.16748H2.48358C2.02819 9.17032 1.58075 9.04805 1.19009 8.814C0.799427 8.57996 0.480537 8.24312 0.268202 7.84023ZM4.58439 16.5003H7.33413V9.16748H4.58439V16.5003ZM9.1673 9.16748V16.5003H12.8336V9.16748H9.1673ZM17.4165 9.16748H14.6668V16.5003H17.4165V9.16748ZM1.89239 6.99053C1.94989 7.09657 2.03548 7.18473 2.13975 7.24535C2.24403 7.30598 2.36298 7.33674 2.48358 7.33426H19.5173C19.6379 7.33674 19.7569 7.30598 19.8612 7.24535C19.9654 7.18473 20.051 7.09657 20.1085 6.99053C20.1504 6.92047 20.1707 6.8396 20.1668 6.75806C20.1629 6.67652 20.1349 6.59796 20.0865 6.53223C19.8645 6.20217 19.5661 5.93051 19.2167 5.74028L12.3423 2.15909C11.928 1.94408 11.4681 1.83184 11.0014 1.83184C10.5346 1.83184 10.0747 1.94408 9.66042 2.15909L2.78605 5.74028C2.43682 5.93113 2.13851 6.20304 1.91622 6.53315C1.86772 6.5986 1.83959 6.6769 1.83535 6.75825C1.83112 6.8396 1.85095 6.9204 1.89239 6.99053Z" fill="black"/>
</svg>
