<svg width="22" height="22" viewBox="0 0 22 22" fill="none" xmlns="http://www.w3.org/2000/svg">
<path d="M20.167 7.77351C20.051 7.77116 19.9405 7.72405 19.8585 7.64204C19.7764 7.56003 19.7293 7.44947 19.727 7.33351V6.41684H17.417V3.66684C17.417 3.52453 17.3839 3.38418 17.3202 3.25689C17.2566 3.12961 17.1642 3.01889 17.0503 2.93351C16.9407 2.84326 16.8116 2.77973 16.6732 2.74791C16.5348 2.7161 16.3909 2.71687 16.2528 2.75017L3.53866 6.41684H2.27366V7.33351C2.27132 7.44947 2.22421 7.56003 2.14219 7.64204C2.06018 7.72405 1.94962 7.77116 1.83366 7.77351H0.916992V17.8568H1.83366C1.94962 17.8592 2.06018 17.9063 2.14219 17.9883C2.22421 18.0703 2.27132 18.1809 2.27366 18.2968V19.2135H19.6903V18.3335C19.6927 18.2175 19.7398 18.107 19.8218 18.025C19.9038 17.943 20.0144 17.8958 20.1303 17.8935H21.047V7.81017L20.167 7.77351ZM15.5837 4.88601V6.41684H10.212L15.5837 4.88601ZM19.2503 16.2527C18.733 16.4853 18.3188 16.8995 18.0862 17.4168H3.91449C3.68187 16.8995 3.2677 16.4853 2.75033 16.2527V9.41434C3.2677 9.18172 3.68187 8.76754 3.91449 8.25017H18.0862C18.3188 8.76754 18.733 9.18172 19.2503 9.41434V16.2527Z" fill="black"/>
<path d="M10.9997 9.1665C10.2745 9.1665 9.56557 9.38155 8.96259 9.78445C8.35961 10.1873 7.88964 10.76 7.61212 11.43C7.3346 12.1 7.26198 12.8372 7.40346 13.5485C7.54494 14.2598 7.89416 14.9131 8.40695 15.4259C8.91974 15.9387 9.57308 16.2879 10.2843 16.4294C10.9956 16.5709 11.7329 16.4983 12.4028 16.2207C13.0728 15.9432 13.6455 15.4732 14.0484 14.8703C14.4513 14.2673 14.6663 13.5584 14.6663 12.8332C14.6663 11.8607 14.28 10.9281 13.5924 10.2404C12.9048 9.55281 11.9721 9.1665 10.9997 9.1665ZM10.9997 14.6665C10.6371 14.6665 10.2826 14.559 9.98113 14.3575C9.67964 14.1561 9.44466 13.8698 9.3059 13.5348C9.16714 13.1998 9.13083 12.8311 9.20157 12.4755C9.27231 12.1199 9.44692 11.7932 9.70331 11.5368C9.95971 11.2804 10.2864 11.1058 10.642 11.0351C10.9976 10.9643 11.3663 11.0006 11.7013 11.1394C12.0363 11.2782 12.3226 11.5131 12.524 11.8146C12.7255 12.1161 12.833 12.4706 12.833 12.8332C12.833 13.3194 12.6399 13.7857 12.296 14.1295C11.9522 14.4733 11.4859 14.6665 10.9997 14.6665Z" fill="black"/>
</svg>
