<svg width="28" height="28" viewBox="0 0 28 28" fill="none" xmlns="http://www.w3.org/2000/svg">
<path d="M18.4994 9.4998C18.2884 9.28889 18.0023 9.17041 17.704 9.17041C17.4057 9.17041 17.1196 9.28889 16.9086 9.4998L13.9994 12.4091L11.0901 9.4998C10.878 9.29487 10.5938 9.18147 10.2988 9.18404C10.0038 9.1866 9.72168 9.30492 9.5131 9.5135C9.30451 9.72208 9.1862 10.0042 9.18364 10.2992C9.18107 10.5942 9.29447 10.8784 9.49939 11.0905L12.4086 13.9998L9.49939 16.9091C9.29447 17.1212 9.18107 17.4054 9.18364 17.7004C9.1862 17.9954 9.30451 18.2775 9.5131 18.4861C9.72168 18.6947 10.0038 18.813 10.2988 18.8156C10.5938 18.8181 10.878 18.7047 11.0901 18.4998L13.9994 15.5906L16.9086 18.4998C17.1208 18.7047 17.405 18.8181 17.7 18.8156C17.9949 18.813 18.2771 18.6947 18.4857 18.4861C18.6943 18.2775 18.8126 17.9954 18.8151 17.7004C18.8177 17.4054 18.7043 17.1212 18.4994 16.9091L15.5901 13.9998L18.4994 11.0905C18.7103 10.8796 18.8288 10.5935 18.8288 10.2952C18.8288 9.99686 18.7103 9.71076 18.4994 9.4998Z" fill="#777777"/>
<path d="M14 0.5C11.33 0.5 8.71987 1.29176 6.49981 2.77516C4.27974 4.25856 2.54942 6.36697 1.52763 8.83377C0.505849 11.3006 0.238504 14.015 0.759405 16.6337C1.28031 19.2525 2.56606 21.6579 4.45406 23.5459C6.34207 25.434 8.74754 26.7197 11.3663 27.2406C13.985 27.7615 16.6994 27.4942 19.1662 26.4724C21.633 25.4506 23.7414 23.7203 25.2248 21.5002C26.7082 19.2801 27.5 16.67 27.5 14C27.4961 10.4208 26.0726 6.98924 23.5417 4.45833C21.0108 1.92743 17.5792 0.503871 14 0.5V0.5ZM14 25.25C11.775 25.25 9.59989 24.5902 7.74984 23.354C5.89979 22.1179 4.45785 20.3609 3.60636 18.3052C2.75488 16.2495 2.53209 13.9875 2.96617 11.8052C3.40026 9.62295 4.47171 7.61839 6.04505 6.04505C7.6184 4.47171 9.62295 3.40025 11.8052 2.96617C13.9875 2.53208 16.2495 2.75487 18.3052 3.60636C20.3609 4.45784 22.1179 5.89978 23.354 7.74984C24.5902 9.59989 25.25 11.775 25.25 14C25.2467 16.9827 24.0604 19.8423 21.9513 21.9513C19.8423 24.0604 16.9827 25.2467 14 25.25Z" fill="#777777"/>
</svg>
