<svg width="20" height="20" viewBox="0 0 20 20" fill="none" xmlns="http://www.w3.org/2000/svg">
<g clip-path="url(#clip0_2482_7819)">
<path d="M18 9.26858V10.0046C17.999 11.7297 17.4404 13.4083 16.4075 14.79C15.3745 16.1718 13.9226 17.1826 12.2683 17.6717C10.6139 18.1608 8.84581 18.1021 7.22757 17.5042C5.60934 16.9064 4.22772 15.8015 3.28877 14.3542C2.34981 12.907 1.90383 11.195 2.01734 9.47363C2.13085 7.75223 2.79777 6.11364 3.91862 4.80224C5.03948 3.49083 6.55423 2.57688 8.23695 2.1967C9.91967 1.81651 11.6802 1.99045 13.256 2.69258" stroke="url(#paint0_linear_2482_7819)" stroke-width="2.5" stroke-linecap="round" stroke-linejoin="round"/>
<path d="M18.0016 3.60449L10.0016 11.6125L7.60156 9.21249" stroke="url(#paint1_linear_2482_7819)" stroke-width="2.5" stroke-linecap="round" stroke-linejoin="round"/>
</g>
<defs>
<linearGradient id="paint0_linear_2482_7819" x1="2" y1="10" x2="18" y2="10" gradientUnits="userSpaceOnUse">
<stop stop-color="#0600FF"/>
<stop offset="1" stop-color="#FF0097"/>
</linearGradient>
<linearGradient id="paint1_linear_2482_7819" x1="6.5" y1="11.5" x2="12.8016" y2="11.6125" gradientUnits="userSpaceOnUse">
<stop stop-color="#0600FF"/>
<stop offset="1" stop-color="#FF0097"/>
</linearGradient>
<clipPath id="clip0_2482_7819">
<rect width="20" height="20" fill="white"/>
</clipPath>
</defs>
</svg>
