<svg width="16" height="9" viewBox="0 0 16 9" fill="none" xmlns="http://www.w3.org/2000/svg">
<path d="M0.192559 2.13996L5.63923 7.58663C5.94886 7.89705 6.3167 8.14333 6.72167 8.31138C7.12664 8.47942 7.56078 8.56592 7.99923 8.56592C8.43767 8.56592 8.87182 8.47942 9.27678 8.31138C9.68175 8.14333 10.0496 7.89705 10.3592 7.58663L15.8059 2.13996C15.9314 2.01442 16.002 1.84416 16.002 1.66663C16.002 1.48909 15.9314 1.31883 15.8059 1.19329C15.6804 1.06776 15.5101 0.997231 15.3326 0.997231C15.155 0.997231 14.9848 1.06776 14.8592 1.19329L9.41256 6.63996C9.03756 7.01449 8.52923 7.22487 7.99923 7.22487C7.46922 7.22487 6.96089 7.01449 6.58589 6.63996L1.13923 1.19329C1.07725 1.13081 1.00352 1.08121 0.922276 1.04736C0.841037 1.01352 0.7539 0.996094 0.665892 0.996094C0.577884 0.996094 0.490746 1.01352 0.409508 1.04736C0.328268 1.08121 0.254535 1.13081 0.192559 1.19329C0.130074 1.25527 0.0804758 1.329 0.0466309 1.41024C0.012785 1.49148 -0.00464058 1.57862 -0.00464058 1.66663C-0.00464058 1.75463 0.012785 1.84177 0.0466309 1.92301C0.0804758 2.00425 0.130074 2.07798 0.192559 2.13996Z" fill="black"/>
</svg>
