<svg width="28" height="18" viewBox="0 0 28 18" fill="none" xmlns="http://www.w3.org/2000/svg">
<path d="M21.875 18H6.125C4.63371 17.9982 3.204 17.405 2.1495 16.3505C1.09499 15.296 0.501786 13.8663 0.5 12.375L0.5 5.625C0.501786 4.13371 1.09499 2.704 2.1495 1.6495C3.204 0.594992 4.63371 0.00178634 6.125 0H21.875C23.3663 0.00178634 24.796 0.594992 25.8505 1.6495C26.905 2.704 27.4982 4.13371 27.5 5.625V12.375C27.4982 13.8663 26.905 15.296 25.8505 16.3505C24.796 17.405 23.3663 17.9982 21.875 18ZM6.125 2.25C5.22989 2.25 4.37145 2.60558 3.73851 3.23851C3.10558 3.87145 2.75 4.72989 2.75 5.625V12.375C2.75 13.2701 3.10558 14.1286 3.73851 14.7615C4.37145 15.3944 5.22989 15.75 6.125 15.75H21.875C22.7701 15.75 23.6286 15.3944 24.2615 14.7615C24.8944 14.1286 25.25 13.2701 25.25 12.375V5.625C25.25 4.72989 24.8944 3.87145 24.2615 3.23851C23.6286 2.60558 22.7701 2.25 21.875 2.25H6.125ZM14 13.5C13.11 13.5 12.24 13.2361 11.4999 12.7416C10.7599 12.2471 10.1831 11.5443 9.84254 10.7221C9.50195 9.89981 9.41283 8.99501 9.58647 8.12209C9.7601 7.24918 10.1887 6.44736 10.818 5.81802C11.4474 5.18868 12.2492 4.7601 13.1221 4.58647C13.995 4.41283 14.8998 4.50195 15.7221 4.84254C16.5443 5.18314 17.2471 5.75991 17.7416 6.49993C18.2361 7.23996 18.5 8.10998 18.5 9C18.5 10.1935 18.0259 11.3381 17.182 12.182C16.3381 13.0259 15.1935 13.5 14 13.5ZM14 6.75C13.555 6.75 13.12 6.88196 12.75 7.12919C12.38 7.37643 12.0916 7.72783 11.9213 8.13896C11.751 8.5501 11.7064 9.0025 11.7932 9.43895C11.88 9.87541 12.0943 10.2763 12.409 10.591C12.7237 10.9057 13.1246 11.12 13.561 11.2068C13.9975 11.2936 14.4499 11.249 14.861 11.0787C15.2722 10.9084 15.6236 10.62 15.8708 10.25C16.118 9.88002 16.25 9.44501 16.25 9C16.25 8.40326 16.0129 7.83097 15.591 7.40901C15.169 6.98705 14.5967 6.75 14 6.75ZM6.125 4.5C5.9025 4.5 5.68499 4.56598 5.49998 4.6896C5.31498 4.81321 5.17078 4.98891 5.08564 5.19448C5.00049 5.40005 4.97821 5.62625 5.02162 5.84448C5.06502 6.06271 5.17217 6.26316 5.3295 6.4205C5.48684 6.57783 5.68729 6.68498 5.90552 6.72838C6.12375 6.77179 6.34995 6.74951 6.55552 6.66436C6.76109 6.57922 6.93679 6.43502 7.0604 6.25002C7.18402 6.06501 7.25 5.8475 7.25 5.625C7.25 5.32663 7.13147 5.04048 6.9205 4.8295C6.70952 4.61853 6.42337 4.5 6.125 4.5ZM20.75 5.625C20.75 5.8475 20.816 6.06501 20.9396 6.25002C21.0632 6.43502 21.2389 6.57922 21.4445 6.66436C21.65 6.74951 21.8762 6.77179 22.0945 6.72838C22.3127 6.68498 22.5132 6.57783 22.6705 6.4205C22.8278 6.26316 22.935 6.06271 22.9784 5.84448C23.0218 5.62625 22.9995 5.40005 22.9144 5.19448C22.8292 4.98891 22.685 4.81321 22.5 4.6896C22.315 4.56598 22.0975 4.5 21.875 4.5C21.5766 4.5 21.2905 4.61853 21.0795 4.8295C20.8685 5.04048 20.75 5.32663 20.75 5.625ZM6.125 11.25C5.9025 11.25 5.68499 11.316 5.49998 11.4396C5.31498 11.5632 5.17078 11.7389 5.08564 11.9445C5.00049 12.15 4.97821 12.3762 5.02162 12.5945C5.06502 12.8127 5.17217 13.0132 5.3295 13.1705C5.48684 13.3278 5.68729 13.435 5.90552 13.4784C6.12375 13.5218 6.34995 13.4995 6.55552 13.4144C6.76109 13.3292 6.93679 13.185 7.0604 13C7.18402 12.815 7.25 12.5975 7.25 12.375C7.25 12.0766 7.13147 11.7905 6.9205 11.5795C6.70952 11.3685 6.42337 11.25 6.125 11.25ZM20.75 12.375C20.75 12.5975 20.816 12.815 20.9396 13C21.0632 13.185 21.2389 13.3292 21.4445 13.4144C21.65 13.4995 21.8762 13.5218 22.0945 13.4784C22.3127 13.435 22.5132 13.3278 22.6705 13.1705C22.8278 13.0132 22.935 12.8127 22.9784 12.5945C23.0218 12.3762 22.9995 12.15 22.9144 11.9445C22.8292 11.7389 22.685 11.5632 22.5 11.4396C22.315 11.316 22.0975 11.25 21.875 11.25C21.5766 11.25 21.2905 11.3685 21.0795 11.5795C20.8685 11.7905 20.75 12.0766 20.75 12.375Z" fill="#04B983"/>
</svg>
