<svg width="30" height="30" viewBox="0 0 30 30" fill="none" xmlns="http://www.w3.org/2000/svg">
<path d="M28.5 15C28.5 15.2984 28.3815 15.5845 28.1705 15.7955C27.9595 16.0065 27.6734 16.125 27.375 16.125C27.0766 16.125 26.7905 16.0065 26.5795 15.7955C26.3685 15.5845 26.25 15.2984 26.25 15C26.2467 12.0173 25.0604 9.15774 22.9513 7.04867C20.8423 4.93959 17.9827 3.75328 15 3.75C14.7016 3.75 14.4155 3.63147 14.2045 3.4205C13.9935 3.20952 13.875 2.92337 13.875 2.625C13.875 2.32663 13.9935 2.04048 14.2045 1.8295C14.4155 1.61853 14.7016 1.5 15 1.5C18.5792 1.50387 22.0108 2.92743 24.5417 5.45833C27.0726 7.98924 28.4961 11.4208 28.5 15ZM19.5 16.125C19.7984 16.125 20.0845 16.0065 20.2955 15.7955C20.5065 15.5845 20.625 15.2984 20.625 15C20.625 14.7016 20.5065 14.4155 20.2955 14.2045C20.0845 13.9935 19.7984 13.875 19.5 13.875H16.9384C16.7423 13.538 16.462 13.2577 16.125 13.0616V9.375C16.125 9.07663 16.0065 8.79048 15.7955 8.5795C15.5845 8.36853 15.2984 8.25 15 8.25C14.7016 8.25 14.4155 8.36853 14.2045 8.5795C13.9935 8.79048 13.875 9.07663 13.875 9.375V13.0616C13.5766 13.2334 13.3218 13.4716 13.1303 13.7577C12.9387 14.0438 12.8156 14.3702 12.7705 14.7115C12.7253 15.0529 12.7594 15.4 12.8699 15.7261C12.9805 16.0522 13.1647 16.3484 13.4081 16.5919C13.6516 16.8353 13.9478 17.0195 14.2739 17.1301C14.6 17.2406 14.9471 17.2747 15.2885 17.2295C15.6298 17.1844 15.9562 17.0613 16.2423 16.8697C16.5284 16.6782 16.7666 16.4234 16.9384 16.125H19.5ZM3.55538 9.132C3.33287 9.132 3.11536 9.19798 2.93036 9.3216C2.74535 9.44521 2.60116 9.62091 2.51601 9.82648C2.43086 10.032 2.40858 10.2582 2.45199 10.4765C2.4954 10.6947 2.60255 10.8952 2.75988 11.0525C2.91721 11.2098 3.11767 11.317 3.3359 11.3604C3.55413 11.4038 3.78033 11.3815 3.98589 11.2964C4.19146 11.2112 4.36716 11.067 4.49078 10.882C4.6144 10.697 4.68038 10.4795 4.68038 10.257C4.68038 9.95863 4.56185 9.67248 4.35087 9.4615C4.13989 9.25053 3.85374 9.132 3.55538 9.132ZM3.75 15C3.75 14.7775 3.68402 14.56 3.5604 14.375C3.43679 14.19 3.26109 14.0458 3.05552 13.9606C2.84995 13.8755 2.62375 13.8532 2.40552 13.8966C2.1873 13.94 1.98684 14.0472 1.82951 14.2045C1.67217 14.3618 1.56503 14.5623 1.52162 14.7805C1.47821 14.9988 1.50049 15.225 1.58564 15.4305C1.67078 15.6361 1.81498 15.8118 1.99998 15.9354C2.18499 16.059 2.4025 16.125 2.625 16.125C2.92337 16.125 3.20952 16.0065 3.4205 15.7955C3.63147 15.5845 3.75 15.2984 3.75 15ZM15 26.25C14.7775 26.25 14.56 26.316 14.375 26.4396C14.19 26.5632 14.0458 26.7389 13.9606 26.9445C13.8755 27.15 13.8532 27.3762 13.8966 27.5945C13.94 27.8127 14.0472 28.0132 14.2045 28.1705C14.3618 28.3278 14.5623 28.435 14.7805 28.4784C14.9988 28.5218 15.225 28.4995 15.4305 28.4144C15.6361 28.3292 15.8118 28.185 15.9354 28C16.059 27.815 16.125 27.5975 16.125 27.375C16.125 27.0766 16.0065 26.7905 15.7955 26.5795C15.5845 26.3685 15.2984 26.25 15 26.25ZM6.24863 5.10788C6.02612 5.10788 5.80861 5.17386 5.62361 5.29747C5.4386 5.42109 5.29441 5.59679 5.20926 5.80236C5.12411 6.00792 5.10183 6.23412 5.14524 6.45235C5.18865 6.67058 5.2958 6.87104 5.45313 7.02837C5.61046 7.1857 5.81092 7.29285 6.02915 7.33626C6.24738 7.37967 6.47358 7.35739 6.67914 7.27224C6.88471 7.18709 7.06041 7.0429 7.18403 6.85789C7.30765 6.67289 7.37363 6.45538 7.37363 6.23287C7.37363 5.93451 7.2551 5.64836 7.04412 5.43738C6.83314 5.2264 6.54699 5.10788 6.24863 5.10788ZM10.2514 2.44613C10.0289 2.44613 9.81136 2.51211 9.62636 2.63572C9.44135 2.75934 9.29716 2.93504 9.21201 3.14061C9.12686 3.34617 9.10458 3.57237 9.14799 3.7906C9.1914 4.00883 9.29855 4.20929 9.45588 4.36662C9.61321 4.52395 9.81367 4.6311 10.0319 4.67451C10.2501 4.71792 10.4763 4.69564 10.6819 4.61049C10.8875 4.52534 11.0632 4.38115 11.1868 4.19614C11.3104 4.01114 11.3764 3.79363 11.3764 3.57113C11.3764 3.27276 11.2578 2.98661 11.0469 2.77563C10.8359 2.56465 10.5497 2.44613 10.2514 2.44613ZM3.55538 18.618C3.33287 18.618 3.11536 18.684 2.93036 18.8076C2.74535 18.9312 2.60116 19.1069 2.51601 19.3125C2.43086 19.518 2.40858 19.7442 2.45199 19.9625C2.4954 20.1807 2.60255 20.3812 2.75988 20.5385C2.91721 20.6958 3.11767 20.803 3.3359 20.8464C3.55413 20.8898 3.78033 20.8675 3.98589 20.7824C4.19146 20.6972 4.36716 20.553 4.49078 20.368C4.6144 20.183 4.68038 19.9655 4.68038 19.743C4.68038 19.4446 4.56185 19.1585 4.35087 18.9475C4.13989 18.7365 3.85374 18.618 3.55538 18.618ZM6.24863 22.6421C6.02612 22.6421 5.80861 22.7081 5.62361 22.8317C5.4386 22.9553 5.29441 23.131 5.20926 23.3366C5.12411 23.5422 5.10183 23.7684 5.14524 23.9866C5.18865 24.2048 5.2958 24.4053 5.45313 24.5626C5.61046 24.72 5.81092 24.8271 6.02915 24.8705C6.24738 24.9139 6.47358 24.8916 6.67914 24.8065C6.88471 24.7213 7.06041 24.5771 7.18403 24.3921C7.30765 24.2071 7.37363 23.9896 7.37363 23.7671C7.37363 23.4688 7.2551 23.1826 7.04412 22.9716C6.83314 22.7607 6.54699 22.6421 6.24863 22.6421ZM10.2514 25.3039C10.0289 25.3039 9.81136 25.3699 9.62636 25.4935C9.44135 25.6171 9.29716 25.7928 9.21201 25.9984C9.12686 26.2039 9.10458 26.4301 9.14799 26.6484C9.1914 26.8666 9.29855 27.067 9.45588 27.2244C9.61321 27.3817 9.81367 27.4889 10.0319 27.5323C10.2501 27.5757 10.4763 27.5534 10.6819 27.4682C10.8875 27.3831 11.0632 27.2389 11.1868 27.0539C11.3104 26.8689 11.3764 26.6514 11.3764 26.4289C11.3764 26.1305 11.2578 25.8444 11.0469 25.6334C10.8359 25.4224 10.5497 25.3039 10.2514 25.3039ZM26.4446 18.618C26.2221 18.618 26.0046 18.684 25.8196 18.8076C25.6346 18.9312 25.4904 19.1069 25.4053 19.3125C25.3201 19.518 25.2978 19.7442 25.3412 19.9625C25.3846 20.1807 25.4918 20.3812 25.6491 20.5385C25.8065 20.6958 26.0069 20.803 26.2251 20.8464C26.4434 20.8898 26.6696 20.8675 26.8751 20.7824C27.0807 20.6972 27.2564 20.553 27.38 20.368C27.5036 20.183 27.5696 19.9655 27.5696 19.743C27.5696 19.4446 27.4511 19.1585 27.2401 18.9475C27.0291 18.7365 26.743 18.618 26.4446 18.618ZM23.7514 22.6421C23.5289 22.6421 23.3114 22.7081 23.1264 22.8317C22.9414 22.9553 22.7972 23.131 22.712 23.3366C22.6269 23.5422 22.6046 23.7684 22.648 23.9866C22.6914 24.2048 22.7985 24.4053 22.9559 24.5626C23.1132 24.72 23.3137 24.8271 23.5319 24.8705C23.7501 24.9139 23.9763 24.8916 24.1819 24.8065C24.3875 24.7213 24.5632 24.5771 24.6868 24.3921C24.8104 24.2071 24.8764 23.9896 24.8764 23.7671C24.8764 23.4688 24.7578 23.1826 24.5469 22.9716C24.3359 22.7607 24.0497 22.6421 23.7514 22.6421ZM19.7486 25.3039C19.5261 25.3039 19.3086 25.3699 19.1236 25.4935C18.9386 25.6171 18.7944 25.7928 18.7093 25.9984C18.6241 26.2039 18.6018 26.4301 18.6452 26.6484C18.6887 26.8666 18.7958 27.067 18.9531 27.2244C19.1105 27.3817 19.3109 27.4889 19.5291 27.5323C19.7474 27.5757 19.9736 27.5534 20.1791 27.4682C20.3847 27.3831 20.5604 27.2389 20.684 27.0539C20.8076 26.8689 20.8736 26.6514 20.8736 26.4289C20.8736 26.1305 20.7551 25.8444 20.5441 25.6334C20.3331 25.4224 20.047 25.3039 19.7486 25.3039Z" fill="#628DFA"/>
</svg>
