<svg width="30" height="30" viewBox="0 0 30 30" fill="none" xmlns="http://www.w3.org/2000/svg">
<path d="M22.875 24H7.125C5.63371 23.9982 4.204 23.405 3.1495 22.3505C2.09499 21.296 1.50179 19.8663 1.5 18.375L1.5 11.625C1.50179 10.1337 2.09499 8.704 3.1495 7.6495C4.204 6.59499 5.63371 6.00179 7.125 6H22.875C24.3663 6.00179 25.796 6.59499 26.8505 7.6495C27.905 8.704 28.4982 10.1337 28.5 11.625V18.375C28.4982 19.8663 27.905 21.296 26.8505 22.3505C25.796 23.405 24.3663 23.9982 22.875 24ZM7.125 8.25C6.22989 8.25 5.37145 8.60558 4.73851 9.23851C4.10558 9.87145 3.75 10.7299 3.75 11.625V18.375C3.75 19.2701 4.10558 20.1286 4.73851 20.7615C5.37145 21.3944 6.22989 21.75 7.125 21.75H22.875C23.7701 21.75 24.6286 21.3944 25.2615 20.7615C25.8944 20.1286 26.25 19.2701 26.25 18.375V11.625C26.25 10.7299 25.8944 9.87145 25.2615 9.23851C24.6286 8.60558 23.7701 8.25 22.875 8.25H7.125ZM15 19.5C14.11 19.5 13.24 19.2361 12.4999 18.7416C11.7599 18.2471 11.1831 17.5443 10.8425 16.7221C10.5019 15.8998 10.4128 14.995 10.5865 14.1221C10.7601 13.2492 11.1887 12.4474 11.818 11.818C12.4474 11.1887 13.2492 10.7601 14.1221 10.5865C14.995 10.4128 15.8998 10.5019 16.7221 10.8425C17.5443 11.1831 18.2471 11.7599 18.7416 12.4999C19.2361 13.24 19.5 14.11 19.5 15C19.5 16.1935 19.0259 17.3381 18.182 18.182C17.3381 19.0259 16.1935 19.5 15 19.5ZM15 12.75C14.555 12.75 14.12 12.882 13.75 13.1292C13.38 13.3764 13.0916 13.7278 12.9213 14.139C12.751 14.5501 12.7064 15.0025 12.7932 15.439C12.88 15.8754 13.0943 16.2763 13.409 16.591C13.7237 16.9057 14.1246 17.12 14.561 17.2068C14.9975 17.2936 15.4499 17.249 15.861 17.0787C16.2722 16.9084 16.6236 16.62 16.8708 16.25C17.118 15.88 17.25 15.445 17.25 15C17.25 14.4033 17.0129 13.831 16.591 13.409C16.169 12.9871 15.5967 12.75 15 12.75ZM7.125 10.5C6.9025 10.5 6.68499 10.566 6.49998 10.6896C6.31498 10.8132 6.17078 10.9889 6.08564 11.1945C6.00049 11.4 5.97821 11.6262 6.02162 11.8445C6.06502 12.0627 6.17217 12.2632 6.3295 12.4205C6.48684 12.5778 6.68729 12.685 6.90552 12.7284C7.12375 12.7718 7.34995 12.7495 7.55552 12.6644C7.76109 12.5792 7.93679 12.435 8.0604 12.25C8.18402 12.065 8.25 11.8475 8.25 11.625C8.25 11.3266 8.13147 11.0405 7.9205 10.8295C7.70952 10.6185 7.42337 10.5 7.125 10.5ZM21.75 11.625C21.75 11.8475 21.816 12.065 21.9396 12.25C22.0632 12.435 22.2389 12.5792 22.4445 12.6644C22.65 12.7495 22.8762 12.7718 23.0945 12.7284C23.3127 12.685 23.5132 12.5778 23.6705 12.4205C23.8278 12.2632 23.935 12.0627 23.9784 11.8445C24.0218 11.6262 23.9995 11.4 23.9144 11.1945C23.8292 10.9889 23.685 10.8132 23.5 10.6896C23.315 10.566 23.0975 10.5 22.875 10.5C22.5766 10.5 22.2905 10.6185 22.0795 10.8295C21.8685 11.0405 21.75 11.3266 21.75 11.625ZM7.125 17.25C6.9025 17.25 6.68499 17.316 6.49998 17.4396C6.31498 17.5632 6.17078 17.7389 6.08564 17.9445C6.00049 18.15 5.97821 18.3762 6.02162 18.5945C6.06502 18.8127 6.17217 19.0132 6.3295 19.1705C6.48684 19.3278 6.68729 19.435 6.90552 19.4784C7.12375 19.5218 7.34995 19.4995 7.55552 19.4144C7.76109 19.3292 7.93679 19.185 8.0604 19C8.18402 18.815 8.25 18.5975 8.25 18.375C8.25 18.0766 8.13147 17.7905 7.9205 17.5795C7.70952 17.3685 7.42337 17.25 7.125 17.25ZM21.75 18.375C21.75 18.5975 21.816 18.815 21.9396 19C22.0632 19.185 22.2389 19.3292 22.4445 19.4144C22.65 19.4995 22.8762 19.5218 23.0945 19.4784C23.3127 19.435 23.5132 19.3278 23.6705 19.1705C23.8278 19.0132 23.935 18.8127 23.9784 18.5945C24.0218 18.3762 23.9995 18.15 23.9144 17.9445C23.8292 17.7389 23.685 17.5632 23.5 17.4396C23.315 17.316 23.0975 17.25 22.875 17.25C22.5766 17.25 22.2905 17.3685 22.0795 17.5795C21.8685 17.7905 21.75 18.0766 21.75 18.375Z" fill="url(#paint0_linear_2441_8068)"/>
<defs>
<linearGradient id="paint0_linear_2441_8068" x1="2" y1="15" x2="28" y2="15" gradientUnits="userSpaceOnUse">
<stop stop-color="#0600FF"/>
<stop offset="1" stop-color="#FF0097"/>
</linearGradient>
</defs>
</svg>
