<svg width="20" height="20" viewBox="0 0 20 20" fill="none" xmlns="http://www.w3.org/2000/svg">
<path d="M8.23169 15.1016C8.46386 15.3339 8.73953 15.5182 9.04295 15.644C9.34637 15.7697 9.67159 15.8344 10 15.8344C10.3285 15.8344 10.6537 15.7697 10.9571 15.644C11.2605 15.5182 11.5362 15.3339 11.7684 15.1016L14.4442 12.4258C14.5877 12.2671 14.6646 12.0594 14.6591 11.8455C14.6536 11.6317 14.5661 11.4281 14.4147 11.277C14.2633 11.1259 14.0595 11.0388 13.8457 11.0338C13.6318 11.0288 13.4242 11.1062 13.2659 11.25L10.8275 13.6891L10.8334 0.833331C10.8334 0.612318 10.7456 0.400357 10.5893 0.244077C10.433 0.0877971 10.221 0 10 0V0C9.77901 0 9.56705 0.0877971 9.41077 0.244077C9.25449 0.400357 9.16669 0.612318 9.16669 0.833331L9.15919 13.6733L6.73419 11.25C6.57783 11.0937 6.36579 11.006 6.14473 11.0061C5.92367 11.0061 5.7117 11.094 5.55544 11.2504C5.39919 11.4068 5.31145 11.6188 5.31152 11.8398C5.3116 12.0609 5.39949 12.2729 5.55586 12.4291L8.23169 15.1016Z" fill="#1A1A1A"/>
<path d="M19.1667 13.3335C18.9457 13.3335 18.7337 13.4213 18.5774 13.5776C18.4211 13.7339 18.3333 13.9458 18.3333 14.1668V17.5002C18.3333 17.7212 18.2455 17.9331 18.0893 18.0894C17.933 18.2457 17.721 18.3335 17.5 18.3335H2.5C2.27899 18.3335 2.06702 18.2457 1.91074 18.0894C1.75446 17.9331 1.66667 17.7212 1.66667 17.5002V14.1668C1.66667 13.9458 1.57887 13.7339 1.42259 13.5776C1.26631 13.4213 1.05435 13.3335 0.833333 13.3335C0.61232 13.3335 0.400358 13.4213 0.244078 13.5776C0.0877974 13.7339 0 13.9458 0 14.1668L0 17.5002C0 18.1632 0.263392 18.7991 0.732233 19.2679C1.20107 19.7368 1.83696 20.0002 2.5 20.0002H17.5C18.163 20.0002 18.7989 19.7368 19.2678 19.2679C19.7366 18.7991 20 18.1632 20 17.5002V14.1668C20 13.9458 19.9122 13.7339 19.7559 13.5776C19.5996 13.4213 19.3877 13.3335 19.1667 13.3335Z" fill="#1A1A1A"/>
</svg>
