<svg width="22" height="22" viewBox="0 0 22 22" fill="none" xmlns="http://www.w3.org/2000/svg">
<path d="M12.3757 0.458496L0.458984 2.75016V19.2502L12.3757 21.5418V0.458496Z" stroke="#1A1A1A" stroke-linecap="round" stroke-linejoin="round"/>
<path d="M12.375 3.2085H21.5417V18.7918H12.375" stroke="#1A1A1A" stroke-linecap="round" stroke-linejoin="round"/>
<path d="M15.125 5.04199H12.375V5.95866H15.125V5.04199Z" stroke="#1A1A1A" stroke-linecap="round" stroke-linejoin="round"/>
<path d="M19.709 5.04199H16.959V5.95866H19.709V5.04199Z" stroke="#1A1A1A" stroke-linecap="round" stroke-linejoin="round"/>
<path d="M15.125 7.79199H12.375V8.70866H15.125V7.79199Z" stroke="#1A1A1A" stroke-linecap="round" stroke-linejoin="round"/>
<path d="M19.709 7.79199H16.959V8.70866H19.709V7.79199Z" stroke="#1A1A1A" stroke-linecap="round" stroke-linejoin="round"/>
<path d="M15.125 10.542H12.375V11.4587H15.125V10.542Z" stroke="#1A1A1A" stroke-linecap="round" stroke-linejoin="round"/>
<path d="M19.709 10.542H16.959V11.4587H19.709V10.542Z" stroke="#1A1A1A" stroke-linecap="round" stroke-linejoin="round"/>
<path d="M15.125 13.292H12.375V14.2087H15.125V13.292Z" stroke="#1A1A1A" stroke-linecap="round" stroke-linejoin="round"/>
<path d="M19.709 13.292H16.959V14.2087H19.709V13.292Z" stroke="#1A1A1A" stroke-linecap="round" stroke-linejoin="round"/>
<path d="M15.125 16.042H12.375V16.9587H15.125V16.042Z" stroke="#1A1A1A" stroke-linecap="round" stroke-linejoin="round"/>
<path d="M19.709 16.042H16.959V16.9587H19.709V16.042Z" stroke="#1A1A1A" stroke-linecap="round" stroke-linejoin="round"/>
<path d="M4.125 7.79199L7.79167 15.1253" stroke="#1A1A1A" stroke-linecap="round" stroke-linejoin="round"/>
<path d="M4.125 15.1253L7.79167 7.79199" stroke="#1A1A1A" stroke-linecap="round" stroke-linejoin="round"/>
</svg>
