<svg width="17" height="21" viewBox="0 0 17 21" fill="none" xmlns="http://www.w3.org/2000/svg">
<path fill-rule="evenodd" clip-rule="evenodd" d="M5.489 1.04212C7.13629 1.43895 7.95994 1.43895 9.60723 1.04212C9.81161 0.992882 10.2477 0.992882 10.9154 1.04212C11.2097 1.04212 11.4483 1.26752 11.4483 1.54558C11.4483 1.62465 11.4286 1.7026 11.3907 1.77313L9.58959 5.13186C12.5728 7.35541 14.0544 10.217 14.0343 13.7166C14.0248 15.3706 13.3102 19.6207 7.51724 19.6207C1.72431 19.6207 0.985956 16.1552 1.0002 13.7166C1.02026 10.281 2.49733 7.42585 5.43141 5.15118L3.64258 1.77073C3.51097 1.52203 3.61766 1.21962 3.88088 1.09527C3.95487 1.06032 4.03646 1.04212 4.11919 1.04212C4.79928 0.985961 5.25589 0.985961 5.489 1.04212Z" stroke="#1A1A1A"/>
<path d="M7.10284 5.34488C7.10284 5.05921 6.87126 4.82764 6.5856 4.82764C6.29994 4.82764 6.06836 5.05921 6.06836 5.34488V7.1035C6.06836 7.38916 6.29994 7.62074 6.5856 7.62074C6.87126 7.62074 7.10284 7.38916 7.10284 7.1035V5.34488Z" fill="#1A1A1A"/>
<path d="M10.2793 4.51733H4.79654C4.51087 4.51733 4.2793 4.74891 4.2793 5.03458C4.2793 5.32024 4.51087 5.55182 4.79654 5.55182H10.2793C10.565 5.55182 10.7965 5.32024 10.7965 5.03458C10.7965 4.74891 10.565 4.51733 10.2793 4.51733Z" fill="#1A1A1A"/>
<path d="M14.7276 17.1379H11.5207C10.8351 17.1379 10.2793 17.6937 10.2793 18.3793C10.2793 19.0649 10.8351 19.6207 11.5207 19.6207H14.7276C15.4132 19.6207 15.9689 19.0649 15.9689 18.3793C15.9689 17.6937 15.4132 17.1379 14.7276 17.1379Z" fill="#F3F3F3" stroke="#1A1A1A"/>
<path d="M13.4141 14.6555H10.2072C9.5216 14.6555 8.96582 15.2113 8.96582 15.8969C8.96582 16.5825 9.5216 17.1383 10.2072 17.1383H13.4141C14.0997 17.1383 14.6555 16.5825 14.6555 15.8969C14.6555 15.2113 14.0997 14.6555 13.4141 14.6555Z" fill="#F3F3F3" stroke="#1A1A1A"/>
<path d="M14.7588 12.1724H11.5519C10.8663 12.1724 10.3105 12.7281 10.3105 13.4137C10.3105 14.0993 10.8663 14.6551 11.5519 14.6551H14.7588C15.4444 14.6551 16.0002 14.0993 16.0002 13.4137C16.0002 12.7281 15.4444 12.1724 14.7588 12.1724Z" fill="#F3F3F3" stroke="#1A1A1A"/>
</svg>
