<svg width="22" height="22" viewBox="0 0 22 22" fill="none" xmlns="http://www.w3.org/2000/svg">
<path d="M5.66722 12C5.29871 12 5 12.2238 5 12.5V15.5C5 15.7761 5.29871 16 5.66722 16C6.03571 16 6.33444 15.7761 6.33444 15.5V15.0004H6.99813C8.10376 15.0004 9 14.3287 9 13.5002C9 12.6716 8.10376 12 6.99813 12H5.66722ZM6.99813 14.0004H6.33444V13H6.99813C7.36676 13 7.66561 13.2239 7.66561 13.5002C7.66561 13.7764 7.36678 14.0004 6.99813 14.0004Z" fill="#212121"/>
<path d="M14.0031 12.4993C14.0035 12.2234 14.2712 12 14.6013 12H16.4018C16.7321 12 17 12.2238 17 12.5C17 12.7761 16.7321 13 16.4018 13H15.1986L15.1972 14.0017H16.4018C16.7321 14.0017 17 14.2256 17 14.5017C17 14.7778 16.7321 15.0017 16.4018 15.0017H15.1979L15.1995 15.4987C15.2003 15.7748 14.9332 15.9993 14.6027 16C14.2724 16.0007 14.0039 15.7774 14.0031 15.5012L14 14.503V14.5011L14.0031 12.4993Z" fill="#212121"/>
<path d="M10.5004 12C10.2241 12 10 12.2238 10 12.5V15.5C10 15.7761 10.2241 16 10.5004 16H10.9984C12.1038 16 12.9999 15.1046 13 14C13 12.8954 12.1038 12 10.9984 12H10.5004ZM11.0008 15V13C11.5524 13.0013 11.9992 13.4485 11.9992 14C11.9991 14.5514 11.5524 14.9987 11.0008 15Z" fill="#212121"/>
<path d="M19.8889 19.8V18.5194C20.5458 18.2104 21 17.5475 21 16.7796V11.825C21 11.0571 20.5458 10.3942 19.8889 10.0852V8.6108C19.8889 8.0278 19.6544 7.4679 19.2378 7.0554L12.7611 0.6446C12.7444 0.628155 12.7257 0.613888 12.707 0.59972C12.6931 0.589237 12.6794 0.57882 12.6667 0.5676C12.5878 0.4972 12.51 0.4279 12.4233 0.3696C12.3952 0.350834 12.3646 0.336028 12.3339 0.321277C12.3161 0.312686 12.2983 0.304117 12.2811 0.2948C12.2626 0.284449 12.2441 0.273867 12.2256 0.263263C12.1653 0.228767 12.1049 0.194128 12.0411 0.1672C11.8222 0.0769999 11.5867 0.0318999 11.3478 0.0153999C11.3259 0.0140139 11.3042 0.0110881 11.2824 0.00815105C11.2523 0.00408105 11.2221 0 11.1911 0H4.33333C3.10667 0 2.11111 0.9856 2.11111 2.2V10.0852C1.45418 10.3942 1 11.0571 1 11.825V16.7796C1 17.5475 1.45418 18.2104 2.11111 18.5194V19.8C2.11111 21.0144 3.10667 22 4.33333 22H17.6667C18.8933 22 19.8889 21.0144 19.8889 19.8ZM17.6667 20.35H4.33333C4.02667 20.35 3.77778 20.1025 3.77778 19.8V18.7046H18.2222V19.8C18.2222 20.1025 17.9733 20.35 17.6667 20.35ZM18.2222 8.8V9.9H3.77778V2.2C3.77778 1.8975 4.02667 1.65 4.33333 1.65H11V6.6C11 7.8144 11.9956 8.8 13.2222 8.8H18.2222ZM16.9756 7.15H13.2222C12.9156 7.15 12.6667 6.9025 12.6667 6.6V2.8831L16.9756 7.15ZM2.94444 11.55H19.0556C19.209 11.55 19.3333 11.6731 19.3333 11.825V16.7796C19.3333 16.9315 19.209 17.0546 19.0556 17.0546H2.94444C2.79103 17.0546 2.66667 16.9315 2.66667 16.7796V11.825C2.66667 11.6731 2.79103 11.55 2.94444 11.55Z" fill="#212121"/>
</svg>
