<svg width="22" height="22" viewBox="0 0 22 22" fill="none" xmlns="http://www.w3.org/2000/svg">
<path d="M7.82588 10.2274C7.28204 10.2274 6.75041 10.0662 6.29822 9.76403C5.84604 9.46189 5.4936 9.03245 5.28548 8.53C5.07736 8.02756 5.02291 7.47468 5.12901 6.94129C5.23511 6.4079 5.49699 5.91795 5.88154 5.5334C6.2661 5.14885 6.75605 4.88696 7.28944 4.78086C7.82283 4.67477 8.3757 4.72922 8.87815 4.93734C9.38059 5.14546 9.81003 5.49789 10.1122 5.95008C10.4143 6.40227 10.5756 6.93389 10.5756 7.47773C10.5748 8.20677 10.2849 8.90574 9.76939 9.42124C9.25388 9.93675 8.55492 10.2267 7.82588 10.2274V10.2274ZM7.82588 6.14127C7.56155 6.14127 7.30316 6.21966 7.08338 6.36651C6.8636 6.51336 6.6923 6.72209 6.59115 6.96629C6.49 7.2105 6.46353 7.47922 6.5151 7.73847C6.56667 7.99771 6.69395 8.23585 6.88086 8.42275C7.06777 8.60966 7.3059 8.73695 7.56515 8.78852C7.8244 8.84008 8.09311 8.81362 8.33732 8.71246C8.58153 8.61131 8.79025 8.44001 8.9371 8.22023C9.08396 8.00045 9.16234 7.74206 9.16234 7.47773C9.16196 7.1234 9.02104 6.78368 8.77049 6.53313C8.51993 6.28257 8.18022 6.14165 7.82588 6.14127Z" fill="#1A1A1A"/>
<path d="M13.9323 16.3344C13.3885 16.3344 12.8569 16.1731 12.4047 15.871C11.9525 15.5688 11.6 15.1394 11.3919 14.6369C11.1838 14.1345 11.1294 13.5816 11.2355 13.0482C11.3416 12.5148 11.6034 12.0249 11.988 11.6403C12.3725 11.2558 12.8625 10.9939 13.3959 10.8878C13.9293 10.7817 14.4822 10.8362 14.9846 11.0443C15.487 11.2524 15.9165 11.6048 16.2186 12.057C16.5208 12.5092 16.682 13.0408 16.682 13.5847C16.681 14.3136 16.391 15.0124 15.8756 15.5279C15.3601 16.0434 14.6613 16.3334 13.9323 16.3344V16.3344ZM13.9323 12.2482C13.668 12.2482 13.4096 12.3266 13.1898 12.4734C12.97 12.6203 12.7988 12.829 12.6976 13.0732C12.5964 13.3174 12.57 13.5862 12.6215 13.8454C12.6731 14.1046 12.8004 14.3428 12.9873 14.5297C13.1742 14.7166 13.4123 14.8439 13.6716 14.8954C13.9308 14.947 14.1996 14.9206 14.4438 14.8194C14.688 14.7182 14.8967 14.5469 15.0436 14.3272C15.1904 14.1074 15.2688 13.849 15.2688 13.5847C15.2684 13.2303 15.1275 12.8906 14.8769 12.6401C14.6264 12.3895 14.2867 12.2486 13.9323 12.2482Z" fill="#1A1A1A"/>
<path d="M8.10342 15.3472C7.97524 15.3471 7.84951 15.3121 7.73969 15.246C7.62987 15.1799 7.5401 15.0852 7.47999 14.972C7.41988 14.8588 7.39169 14.7314 7.39844 14.6034C7.4052 14.4754 7.44664 14.3516 7.51833 14.2454L13.0682 6.02641C13.173 5.87104 13.3353 5.76371 13.5194 5.72802C13.7034 5.69233 13.8941 5.7312 14.0494 5.83609C14.2048 5.94097 14.3121 6.10328 14.3478 6.2873C14.3835 6.47133 14.3446 6.66199 14.2397 6.81735L8.68944 15.0363C8.62467 15.1322 8.53736 15.2106 8.43518 15.2648C8.33301 15.319 8.21909 15.3473 8.10342 15.3472V15.3472Z" fill="#1A1A1A"/>
<path d="M10.8789 20C5.6579 20 1.41016 15.7523 1.41016 10.5313C1.41016 5.31025 5.6579 1.0625 10.8789 1.0625C16.0999 1.0625 20.3477 5.31025 20.3477 10.5313C20.3477 15.7523 16.0999 20 10.8789 20ZM10.8789 2.47575C6.43707 2.47575 2.8234 6.08942 2.8234 10.5313C2.8234 14.9731 6.43707 18.5868 10.8789 18.5868C15.3207 18.5868 18.9344 14.9731 18.9344 10.5313C18.9344 6.08942 15.3207 2.47575 10.8789 2.47575Z" fill="#1A1A1A"/>
</svg>
