<svg width="11" height="19" viewBox="0 0 11 19" fill="none" xmlns="http://www.w3.org/2000/svg">
<path d="M4.34883 13.7762H6.19883V12.7012C6.19883 11.1762 7.27383 10.1262 8.39883 9.05117C9.59883 7.90117 10.8488 6.72617 10.8488 4.87617C10.8488 2.77617 9.49883 0.726171 6.09883 0.726171C3.04883 0.726171 0.973832 2.77617 0.798832 5.70117H2.74883C2.92383 3.72617 4.19883 2.45117 6.07383 2.45117C7.92383 2.45117 8.74883 3.47617 8.74883 4.95117C8.74883 6.15117 7.89883 7.05117 6.92383 8.02617C5.67383 9.25117 4.34883 10.5012 4.34883 12.5262V13.7762ZM5.22383 18.9512C6.09883 18.9512 6.82383 18.2512 6.82383 17.3512C6.82383 16.4512 6.09883 15.7512 5.22383 15.7512C4.34883 15.7512 3.62383 16.4512 3.62383 17.3512C3.62383 18.2512 4.34883 18.9512 5.22383 18.9512Z" fill="#1A1A1A"/>
</svg>
