<svg width="19" height="21" viewBox="0 0 19 21" fill="none" xmlns="http://www.w3.org/2000/svg">
<path d="M13.3815 4.03133C14.4401 4.03133 15.2982 3.17321 15.2982 2.11466C15.2982 1.05612 14.4401 0.197998 13.3815 0.197998C12.323 0.197998 11.4648 1.05612 11.4648 2.11466C11.4648 3.17321 12.323 4.03133 13.3815 4.03133Z" fill="white"/>
<path d="M18.0288 4.75016C17.5496 4.51058 16.9746 4.67829 16.735 5.15745L15.8965 6.7387L12.2069 4.41475C12.0632 4.31891 11.8954 4.271 11.7038 4.271H7.63086C7.27149 4.271 6.96003 4.46266 6.79232 4.77412L5.23503 7.64912C4.97149 8.10433 5.16315 8.70329 5.61836 8.94287C5.76211 9.01475 5.92982 9.06266 6.07357 9.06266C6.40899 9.06266 6.7444 8.871 6.91211 8.55954L8.20586 6.18766H9.6194L5.37878 14.0939H1.40169C0.87461 14.0939 0.443359 14.5252 0.443359 15.0522C0.443359 15.5793 0.87461 16.0106 1.40169 16.0106H5.95378C6.31315 16.0106 6.62461 15.8189 6.79232 15.5075L8.4694 12.4168L11.2246 14.9804L11.009 19.796C10.9611 20.3231 11.3684 20.7783 11.8954 20.8022C11.9194 20.8022 11.9194 20.8022 11.9434 20.8022C12.4465 20.8022 12.8777 20.395 12.9017 19.8918L13.1413 14.621C13.1652 14.3335 13.0454 14.07 12.8298 13.8783L10.5059 11.722L12.9496 7.16995L15.7288 8.91891C15.9444 9.06266 16.2319 9.11058 16.4954 9.03871C16.759 8.96683 16.9746 8.79912 17.0944 8.55954L18.4121 6.04391C18.6757 5.5887 18.5079 5.0137 18.0288 4.75016Z" fill="white"/>
</svg>
