<svg width="20" height="20" viewBox="0 0 20 20" fill="none" xmlns="http://www.w3.org/2000/svg">
<g clip-path="url(#clip0_2482_4761)">
<path d="M9.99862 0C7.55254 0.00719091 5.19343 0.908156 3.36528 2.53333L2.25445 1.4225C2.13791 1.30599 1.98944 1.22665 1.82781 1.19451C1.66618 1.16237 1.49866 1.17888 1.34641 1.24193C1.19416 1.30499 1.06402 1.41178 0.97245 1.54878C0.880879 1.68579 0.831986 1.84687 0.831951 2.01167V5.83333C0.831951 6.05434 0.919748 6.26631 1.07603 6.42259C1.23231 6.57887 1.44427 6.66666 1.66528 6.66666H5.48695C5.65174 6.66663 5.81282 6.61774 5.94983 6.52617C6.08684 6.4346 6.19362 6.30446 6.25668 6.15221C6.31974 5.99996 6.33624 5.83243 6.3041 5.6708C6.27196 5.50918 6.19263 5.36071 6.07612 5.24416L5.13028 4.29833C6.23403 3.35545 7.58769 2.75314 9.02703 2.56449C10.4664 2.37583 11.9295 2.60894 13.239 3.23552C14.5485 3.86211 15.6479 4.85524 16.404 6.09443C17.1601 7.33362 17.5404 8.76561 17.4986 10.2167C17.445 12.0915 16.6908 13.8783 15.3848 15.2245C14.0788 16.5708 12.3158 17.3788 10.4434 17.4893C8.57098 17.5998 6.72515 17.0046 5.26991 15.8213C3.81466 14.6379 2.85563 12.9522 2.58195 11.0967C2.54287 10.795 2.39581 10.5176 2.16799 10.316C1.94016 10.1144 1.64701 10.0021 1.34278 10C1.16625 9.99772 0.991271 10.0331 0.829522 10.1039C0.667773 10.1746 0.522984 10.2791 0.404825 10.4103C0.286667 10.5414 0.197859 10.6963 0.144336 10.8645C0.090813 11.0328 0.0738059 11.2105 0.094451 11.3858C0.441294 13.8408 1.68644 16.0799 3.58895 17.6697C5.49146 19.2596 7.91607 20.0872 10.3936 19.9925C12.9001 19.8717 15.2717 18.8218 17.0461 17.0474C18.8204 15.2731 19.8704 12.9014 19.9911 10.395C20.0428 9.04993 19.8226 7.70826 19.3439 6.45022C18.8651 5.19218 18.1376 4.04361 17.2047 3.0732C16.2719 2.10279 15.1529 1.33047 13.9148 0.802433C12.6766 0.274391 11.3447 0.00147357 9.99862 0Z" fill="white"/>
<path d="M9.58594 5.8335C9.25442 5.8335 8.93648 5.96519 8.70205 6.19961C8.46763 6.43403 8.33594 6.75198 8.33594 7.0835V10.661C8.33603 11.103 8.51169 11.5268 8.82427 11.8393L10.3184 13.3335C10.5542 13.5612 10.8699 13.6872 11.1977 13.6843C11.5254 13.6815 11.839 13.55 12.0707 13.3183C12.3025 13.0865 12.4339 12.773 12.4368 12.4452C12.4396 12.1175 12.3136 11.8017 12.0859 11.566L10.8359 10.316V7.0835C10.8359 6.75198 10.7042 6.43403 10.4698 6.19961C10.2354 5.96519 9.91746 5.8335 9.58594 5.8335Z" fill="white"/>
</g>
<defs>
<clipPath id="clip0_2482_4761">
<rect width="20" height="20" fill="white"/>
</clipPath>
</defs>
</svg>
