<svg width="20" height="20" viewBox="0 0 20 20" fill="none" xmlns="http://www.w3.org/2000/svg">
<path d="M19.9167 9.53064C19.5893 7.01015 18.3144 4.70892 16.3512 3.09467C14.388 1.48043 11.8837 0.674314 9.34747 0.840179C6.81122 1.00604 4.4333 2.13144 2.69703 3.98762C0.960757 5.8438 -0.00356686 8.29148 6.17117e-05 10.8331C-0.00474196 12.1936 0.270943 13.5404 0.809907 14.7895C1.34887 16.0386 2.13954 17.1632 3.13256 18.0931C3.89201 18.7963 4.89269 19.1805 5.92756 19.1665H14.0667C15.16 19.169 16.2104 18.7413 16.9909 17.9756C18.1031 16.8935 18.947 15.5663 19.455 14.1C19.963 12.6337 20.1211 11.0689 19.9167 9.53064ZM6.22673 16.384C6.15442 16.4662 6.06662 16.5334 5.96833 16.5816C5.87005 16.6299 5.76322 16.6584 5.65394 16.6653C5.54466 16.6723 5.43508 16.6576 5.33146 16.6222C5.22785 16.5868 5.13222 16.5314 5.05006 16.459C3.90472 15.4534 3.0932 14.1225 2.72376 12.6438C2.35432 11.1652 2.44452 9.60899 2.98233 8.1829C3.52013 6.75681 4.47998 5.5286 5.73383 4.6621C6.98768 3.79559 8.47593 3.33199 10.0001 3.33314C10.6322 3.33333 11.2618 3.41256 11.8742 3.56897C11.9803 3.59633 12.0799 3.64431 12.1674 3.71017C12.2549 3.77602 12.3286 3.85847 12.3842 3.9528C12.4398 4.04713 12.4763 4.15149 12.4917 4.25993C12.507 4.36837 12.5008 4.47876 12.4734 4.58481C12.446 4.69085 12.3981 4.79046 12.3322 4.87796C12.2663 4.96546 12.1839 5.03914 12.0896 5.09477C11.9952 5.15041 11.8909 5.18693 11.7824 5.20223C11.674 5.21753 11.5636 5.21133 11.4576 5.18397C10.188 4.85491 8.84452 4.96367 7.64441 5.49267C6.4443 6.02167 5.45768 6.93998 4.84409 8.09912C4.2305 9.25827 4.0258 10.5905 4.26309 11.8804C4.50038 13.1703 5.16579 14.3424 6.15173 15.2073C6.23396 15.2796 6.30113 15.3674 6.34941 15.4657C6.39768 15.564 6.42612 15.6708 6.43308 15.7801C6.44005 15.8894 6.42541 15.9989 6.39 16.1026C6.35459 16.2062 6.29911 16.3018 6.22673 16.384ZM10.0001 12.4998C9.76116 12.503 9.52437 12.4547 9.30575 12.3583C9.08713 12.2619 8.89178 12.1197 8.73296 11.9412C8.57414 11.7627 8.45555 11.5521 8.38523 11.3238C8.31491 11.0955 8.29451 10.8547 8.32541 10.6178C8.3563 10.3808 8.43778 10.1533 8.5643 9.95066C8.69083 9.74799 8.85946 9.57489 9.05874 9.4431C9.25803 9.31131 9.48333 9.22391 9.71935 9.18682C9.95538 9.14973 10.1966 9.16382 10.4267 9.22814L13.5776 6.0773C13.6544 5.99771 13.7464 5.93423 13.8481 5.89055C13.9497 5.84688 14.0591 5.82389 14.1697 5.82293C14.2804 5.82197 14.3901 5.84305 14.4925 5.88495C14.5949 5.92685 14.688 5.98873 14.7662 6.06698C14.8445 6.14522 14.9063 6.23826 14.9482 6.34068C14.9901 6.44309 15.0112 6.55282 15.0103 6.66347C15.0093 6.77412 14.9863 6.88347 14.9426 6.98514C14.899 7.08681 14.8355 7.17877 14.7559 7.25564L11.6051 10.4065C11.6745 10.6529 11.6856 10.9122 11.6373 11.1637C11.589 11.4152 11.4828 11.652 11.3269 11.8552C11.1711 12.0584 10.9701 12.2225 10.7397 12.3344C10.5094 12.4463 10.2561 12.5029 10.0001 12.4998ZM14.9501 16.459C14.7834 16.5988 14.5687 16.668 14.3518 16.6517C14.1349 16.6354 13.9329 16.5349 13.7891 16.3717C13.6453 16.2085 13.5709 15.9955 13.582 15.7783C13.5931 15.561 13.6887 15.3567 13.8484 15.209C14.6587 14.4983 15.256 13.5769 15.574 12.547C15.8919 11.5172 15.9179 10.4194 15.6492 9.37564C15.594 9.16148 15.6261 8.93413 15.7384 8.74363C15.8508 8.55312 16.0342 8.41506 16.2484 8.3598C16.4626 8.30455 16.6899 8.33664 16.8804 8.449C17.0709 8.56137 17.209 8.74481 17.2642 8.95897C17.4207 9.57141 17.4999 10.201 17.5001 10.8331C17.4988 11.8982 17.2708 12.9507 16.8311 13.9208C16.3914 14.8908 15.7502 15.756 14.9501 16.459Z" fill="white"/>
</svg>
