<svg width="20" height="20" viewBox="0 0 20 20" fill="none" xmlns="http://www.w3.org/2000/svg">
<path d="M13.3322 6.66684C13.1759 6.51061 12.964 6.42285 12.7431 6.42285C12.5221 6.42285 12.3102 6.51061 12.1539 6.66684L9.99889 8.82185L7.8439 6.66684C7.68673 6.51504 7.47623 6.43105 7.25773 6.43295C7.03923 6.43484 6.83022 6.52248 6.67572 6.67699C6.52121 6.8315 6.43357 7.04051 6.43167 7.25901C6.42977 7.47751 6.51377 7.68801 6.66557 7.84518L8.82056 10.0002L6.66557 12.1552C6.51377 12.3124 6.42977 12.5229 6.43167 12.7414C6.43357 12.9599 6.52121 13.1689 6.67572 13.3234C6.83022 13.4779 7.03923 13.5655 7.25773 13.5674C7.47623 13.5693 7.68673 13.4853 7.8439 13.3335L9.99889 11.1785L12.1539 13.3335C12.3111 13.4853 12.5216 13.5693 12.7401 13.5674C12.9585 13.5655 13.1676 13.4779 13.3221 13.3234C13.4766 13.1689 13.5642 12.9599 13.5661 12.7414C13.568 12.5229 13.484 12.3124 13.3322 12.1552L11.1772 10.0002L13.3322 7.84518C13.4884 7.6889 13.5762 7.47698 13.5762 7.25601C13.5762 7.03504 13.4884 6.82311 13.3322 6.66684Z" fill="#AAAAAA"/>
<path d="M10 0C8.02219 0 6.08879 0.58649 4.4443 1.6853C2.79981 2.78412 1.51809 4.3459 0.761209 6.17316C0.00433286 8.00043 -0.1937 10.0111 0.192152 11.9509C0.578004 13.8907 1.53041 15.6725 2.92894 17.0711C4.32746 18.4696 6.10929 19.422 8.0491 19.8078C9.98891 20.1937 11.9996 19.9957 13.8268 19.2388C15.6541 18.4819 17.2159 17.2002 18.3147 15.5557C19.4135 13.9112 20 11.9778 20 10C19.9971 7.34871 18.9426 4.80684 17.0679 2.9321C15.1932 1.05736 12.6513 0.00286757 10 0V0ZM10 18.3333C8.35182 18.3333 6.74066 17.8446 5.37025 16.9289C3.99984 16.0132 2.93174 14.7117 2.30101 13.189C1.67028 11.6663 1.50525 9.99075 1.82679 8.37425C2.14834 6.75774 2.94201 5.27288 4.10745 4.10744C5.27288 2.94201 6.75774 2.14833 8.37425 1.82679C9.99076 1.50525 11.6663 1.67027 13.189 2.301C14.7117 2.93173 16.0132 3.99984 16.9289 5.37025C17.8446 6.74066 18.3333 8.35182 18.3333 10C18.3309 12.2094 17.4522 14.3276 15.8899 15.8899C14.3276 17.4522 12.2094 18.3309 10 18.3333Z" fill="#AAAAAA"/>
</svg>
