<svg width="20" height="14" viewBox="0 0 20 14" fill="none" xmlns="http://www.w3.org/2000/svg">
<path d="M15.8333 14H4.16667C3.062 13.9986 2.00296 13.5372 1.22185 12.7171C0.440735 11.8969 0.00132321 10.7849 0 9.625L0 4.375C0.00132321 3.2151 0.440735 2.10311 1.22185 1.28294C2.00296 0.462772 3.062 0.00138938 4.16667 0H15.8333C16.938 0.00138938 17.997 0.462772 18.7782 1.28294C19.5593 2.10311 19.9987 3.2151 20 4.375V9.625C19.9987 10.7849 19.5593 11.8969 18.7782 12.7171C17.997 13.5372 16.938 13.9986 15.8333 14ZM4.16667 1.75C3.50363 1.75 2.86774 2.02656 2.3989 2.51884C1.93006 3.01113 1.66667 3.67881 1.66667 4.375V9.625C1.66667 10.3212 1.93006 10.9889 2.3989 11.4812C2.86774 11.9734 3.50363 12.25 4.16667 12.25H15.8333C16.4964 12.25 17.1323 11.9734 17.6011 11.4812C18.0699 10.9889 18.3333 10.3212 18.3333 9.625V4.375C18.3333 3.67881 18.0699 3.01113 17.6011 2.51884C17.1323 2.02656 16.4964 1.75 15.8333 1.75H4.16667ZM10 10.5C9.34073 10.5 8.69626 10.2947 8.1481 9.91014C7.59994 9.52556 7.17269 8.97893 6.9204 8.33939C6.66811 7.69985 6.6021 6.99612 6.73072 6.31718C6.85933 5.63825 7.1768 5.01461 7.64298 4.52513C8.10915 4.03564 8.7031 3.7023 9.3497 3.56725C9.9963 3.4322 10.6665 3.50151 11.2756 3.76642C11.8847 4.03133 12.4053 4.47993 12.7716 5.0555C13.1378 5.63108 13.3333 6.30777 13.3333 7C13.3333 7.92826 12.9821 8.8185 12.357 9.47487C11.7319 10.1313 10.8841 10.5 10 10.5ZM10 5.25C9.67036 5.25 9.34813 5.35264 9.07405 5.54493C8.79997 5.73722 8.58635 6.01053 8.4602 6.3303C8.33405 6.65007 8.30105 7.00194 8.36536 7.34141C8.42967 7.68087 8.5884 7.99269 8.82149 8.23744C9.05458 8.48218 9.35155 8.64885 9.67485 8.71637C9.99815 8.7839 10.3333 8.74924 10.6378 8.61679C10.9423 8.48434 11.2026 8.26003 11.3858 7.97225C11.5689 7.68446 11.6667 7.34612 11.6667 7C11.6667 6.53587 11.4911 6.09075 11.1785 5.76256C10.8659 5.43437 10.442 5.25 10 5.25ZM4.16667 3.5C4.00185 3.5 3.84073 3.55132 3.70369 3.64746C3.56665 3.74361 3.45984 3.88027 3.39677 4.04015C3.33369 4.20004 3.31719 4.37597 3.34935 4.5457C3.3815 4.71544 3.46087 4.87135 3.57741 4.99372C3.69395 5.11609 3.84244 5.19943 4.00409 5.23319C4.16574 5.26695 4.3333 5.24962 4.48557 5.18339C4.63784 5.11717 4.76799 5.00502 4.85956 4.86112C4.95113 4.71723 5 4.54806 5 4.375C5 4.14294 4.9122 3.92038 4.75592 3.75628C4.59964 3.59219 4.38768 3.5 4.16667 3.5ZM15 4.375C15 4.54806 15.0489 4.71723 15.1404 4.86112C15.232 5.00502 15.3622 5.11717 15.5144 5.18339C15.6667 5.24962 15.8343 5.26695 15.9959 5.23319C16.1576 5.19943 16.306 5.11609 16.4226 4.99372C16.5391 4.87135 16.6185 4.71544 16.6507 4.5457C16.6828 4.37597 16.6663 4.20004 16.6032 4.04015C16.5402 3.88027 16.4333 3.74361 16.2963 3.64746C16.1593 3.55132 15.9982 3.5 15.8333 3.5C15.6123 3.5 15.4004 3.59219 15.2441 3.75628C15.0878 3.92038 15 4.14294 15 4.375ZM4.16667 8.75C4.00185 8.75 3.84073 8.80132 3.70369 8.89746C3.56665 8.99361 3.45984 9.13027 3.39677 9.29015C3.33369 9.45004 3.31719 9.62597 3.34935 9.7957C3.3815 9.96544 3.46087 10.1213 3.57741 10.2437C3.69395 10.3661 3.84244 10.4494 4.00409 10.4832C4.16574 10.5169 4.3333 10.4996 4.48557 10.4334C4.63784 10.3672 4.76799 10.255 4.85956 10.1111C4.95113 9.96723 5 9.79806 5 9.625C5 9.39294 4.9122 9.17038 4.75592 9.00628C4.59964 8.84219 4.38768 8.75 4.16667 8.75ZM15 9.625C15 9.79806 15.0489 9.96723 15.1404 10.1111C15.232 10.255 15.3622 10.3672 15.5144 10.4334C15.6667 10.4996 15.8343 10.5169 15.9959 10.4832C16.1576 10.4494 16.306 10.3661 16.4226 10.2437C16.5391 10.1213 16.6185 9.96544 16.6507 9.7957C16.6828 9.62597 16.6663 9.45004 16.6032 9.29015C16.5402 9.13027 16.4333 8.99361 16.2963 8.89746C16.1593 8.80132 15.9982 8.75 15.8333 8.75C15.6123 8.75 15.4004 8.84219 15.2441 9.00628C15.0878 9.17038 15 9.39294 15 9.625Z" fill="#AAAAAA"/>
</svg>
