<svg width="20" height="14" viewBox="0 0 20 14" fill="none" xmlns="http://www.w3.org/2000/svg">
<path d="M15.8333 0H4.16667C3.062 0.00132322 2.00296 0.440736 1.22185 1.22185C0.440735 2.00297 0.00132321 3.06201 0 4.16667L0 9.16668C0.00132321 10.2713 0.440735 11.3304 1.22185 12.1115C2.00296 12.8926 3.062 13.332 4.16667 13.3334H15.8333C16.938 13.332 17.997 12.8926 18.7781 12.1115C19.5593 11.3304 19.9987 10.2713 20 9.16668V4.16667C19.9987 3.06201 19.5593 2.00297 18.7781 1.22185C17.997 0.440736 16.938 0.00132322 15.8333 0ZM3.33333 10.8333C3.16851 10.8333 3.0074 10.7845 2.87036 10.6929C2.73332 10.6013 2.62651 10.4712 2.56343 10.3189C2.50036 10.1666 2.48386 9.99909 2.51601 9.83744C2.54817 9.67579 2.62753 9.5273 2.74408 9.41076C2.86062 9.29421 3.00911 9.21484 3.17076 9.18269C3.33241 9.15054 3.49996 9.16704 3.65223 9.23011C3.80451 9.29319 3.93466 9.4 4.02622 9.53704C4.11779 9.67408 4.16667 9.83519 4.16667 10C4.16667 10.221 4.07887 10.433 3.92259 10.5893C3.76631 10.7456 3.55435 10.8333 3.33333 10.8333ZM3.33333 4.16667C3.16851 4.16667 3.0074 4.1178 2.87036 4.02623C2.73332 3.93466 2.62651 3.80451 2.56343 3.65224C2.50036 3.49997 2.48386 3.33241 2.51601 3.17076C2.54817 3.00911 2.62753 2.86063 2.74408 2.74408C2.86062 2.62754 3.00911 2.54817 3.17076 2.51602C3.33241 2.48386 3.49996 2.50036 3.65223 2.56344C3.80451 2.62651 3.93466 2.73332 4.02622 2.87036C4.11779 3.0074 4.16667 3.16852 4.16667 3.33334C4.16667 3.55435 4.07887 3.76631 3.92259 3.92259C3.76631 4.07887 3.55435 4.16667 3.33333 4.16667ZM10 10C9.34072 10 8.69626 9.80452 8.1481 9.43824C7.59993 9.07197 7.17269 8.55138 6.9204 7.94229C6.66811 7.3332 6.6021 6.66298 6.73071 6.01637C6.85933 5.36977 7.1768 4.77583 7.64297 4.30965C8.10915 3.84347 8.70309 3.526 9.3497 3.39739C9.9963 3.26877 10.6665 3.33478 11.2756 3.58707C11.8847 3.83936 12.4053 4.26661 12.7716 4.81477C13.1378 5.36294 13.3333 6.0074 13.3333 6.66668C13.3333 7.55073 12.9821 8.39858 12.357 9.0237C11.7319 9.64882 10.8841 10 10 10ZM16.6667 10.8333C16.5018 10.8333 16.3407 10.7845 16.2037 10.6929C16.0666 10.6013 15.9598 10.4712 15.8968 10.3189C15.8337 10.1666 15.8172 9.99909 15.8493 9.83744C15.8815 9.67579 15.9609 9.5273 16.0774 9.41076C16.1939 9.29421 16.3424 9.21484 16.5041 9.18269C16.6657 9.15054 16.8333 9.16704 16.9856 9.23011C17.1378 9.29319 17.268 9.4 17.3596 9.53704C17.4511 9.67408 17.5 9.83519 17.5 10C17.5 10.221 17.4122 10.433 17.2559 10.5893C17.0996 10.7456 16.8877 10.8333 16.6667 10.8333ZM16.6667 4.16667C16.5018 4.16667 16.3407 4.1178 16.2037 4.02623C16.0666 3.93466 15.9598 3.80451 15.8968 3.65224C15.8337 3.49997 15.8172 3.33241 15.8493 3.17076C15.8815 3.00911 15.9609 2.86063 16.0774 2.74408C16.1939 2.62754 16.3424 2.54817 16.5041 2.51602C16.6657 2.48386 16.8333 2.50036 16.9856 2.56344C17.1378 2.62651 17.268 2.73332 17.3596 2.87036C17.4511 3.0074 17.5 3.16852 17.5 3.33334C17.5 3.55435 17.4122 3.76631 17.2559 3.92259C17.0996 4.07887 16.8877 4.16667 16.6667 4.16667ZM11.6667 6.66668C11.6667 6.99631 11.5689 7.31854 11.3858 7.59263C11.2026 7.86671 10.9423 8.08033 10.6378 8.20648C10.3333 8.33262 9.99815 8.36563 9.67485 8.30132C9.35154 8.23701 9.05457 8.07828 8.82149 7.84519C8.5884 7.6121 8.42966 7.31513 8.36535 6.99183C8.30105 6.66852 8.33405 6.33341 8.4602 6.02887C8.58634 5.72432 8.79996 5.46403 9.07405 5.28089C9.34813 5.09775 9.67036 5.00001 10 5.00001C10.442 5.00001 10.8659 5.1756 11.1785 5.48816C11.4911 5.80072 11.6667 6.22465 11.6667 6.66668Z" fill="white"/>
</svg>
