<svg width="14" height="20" viewBox="0 0 14 20" fill="none" xmlns="http://www.w3.org/2000/svg">
<path d="M8.72709 19.2973L12.6696 15.354C12.9044 15.1196 13.0365 14.8016 13.0368 14.4698C13.0371 14.138 12.9056 13.8197 12.6713 13.5848C12.4369 13.35 12.1188 13.2179 11.787 13.2176C11.4552 13.2173 11.1369 13.3488 10.9021 13.5832L8.24875 16.294V2.51318H11.7779C12.1094 2.51318 12.4274 2.38149 12.6618 2.14707C12.8962 1.91265 13.0279 1.5947 13.0279 1.26318C13.0279 0.931662 12.8962 0.61372 12.6618 0.3793C12.4274 0.14488 12.1094 0.0131836 11.7779 0.0131836H2.21875C1.88723 0.0131836 1.56929 0.14488 1.33487 0.3793C1.10045 0.61372 0.96875 0.931662 0.96875 1.26318C0.96875 1.5947 1.10045 1.91265 1.33487 2.14707C1.56929 2.38149 1.88723 2.51318 2.21875 2.51318H5.74875V16.2407L3.09375 13.5832C2.858 13.3555 2.54225 13.2295 2.2145 13.2323C1.88675 13.2352 1.57324 13.3666 1.34148 13.5984C1.10972 13.8302 0.978255 14.1437 0.975407 14.4714C0.972559 14.7992 1.09855 15.1149 1.32625 15.3507L5.26959 19.2948C5.72842 19.7524 6.34983 20.0096 6.99782 20.01C7.64581 20.0105 8.26759 19.7542 8.72709 19.2973V19.2973Z" fill="white"/>
</svg>
