<svg width="12" height="20" viewBox="0 0 12 20" fill="none" xmlns="http://www.w3.org/2000/svg">
<path d="M0.999911 1.66672H5.16658L5.16658 17.6476L1.58325 14.0642C1.42608 13.9124 1.21558 13.8284 0.997078 13.8303C0.778581 13.8322 0.56957 13.9199 0.415063 14.0744C0.260556 14.2289 0.172915 14.4379 0.171017 14.6564C0.169118 14.8749 0.253113 15.0854 0.404911 15.2426L4.52658 19.3642C4.72004 19.5577 4.94973 19.7112 5.20253 19.816C5.45533 19.9207 5.72628 19.9746 5.99991 19.9746C6.27354 19.9746 6.5445 19.9207 6.7973 19.816C7.05009 19.7112 7.27978 19.5577 7.47324 19.3642L11.5982 15.2392C11.7545 15.0825 11.8421 14.8702 11.8418 14.6489C11.8415 14.4276 11.7533 14.2155 11.5966 14.0592C11.4399 13.903 11.2275 13.8154 11.0062 13.8157C10.7849 13.816 10.5728 13.9042 10.4166 14.0609L6.83324 17.6442L6.83324 1.66672H10.9999C11.2209 1.66672 11.4329 1.57892 11.5892 1.42264C11.7454 1.26636 11.8332 1.0544 11.8332 0.833387C11.8332 0.612373 11.7454 0.400412 11.5892 0.244131C11.4329 0.0878506 11.2209 5.34058e-05 10.9999 5.34058e-05H0.999911C0.778898 5.34058e-05 0.566936 0.0878506 0.410656 0.244131C0.254375 0.400412 0.166578 0.612373 0.166578 0.833387C0.166578 1.0544 0.254375 1.26636 0.410656 1.42264C0.566936 1.57892 0.778898 1.66672 0.999911 1.66672Z" fill="#AAAAAA"/>
</svg>
