<svg width="44" height="44" viewBox="0 0 44 44" fill="none" xmlns="http://www.w3.org/2000/svg">
<path d="M30.25 40.3334H13.75C12.2913 40.3334 10.8924 39.754 9.86091 38.7225C8.82946 37.6911 8.25 36.2921 8.25 34.8334V9.16675C8.25 7.70806 8.82946 6.30911 9.86091 5.27766C10.8924 4.24621 12.2913 3.66675 13.75 3.66675H25.8317C26.3126 3.66877 26.7735 3.85972 27.115 4.19841L35.2183 12.3017C35.557 12.6432 35.748 13.1041 35.75 13.5851V34.8334C35.75 36.2921 35.1705 37.6911 34.1391 38.7225C33.1076 39.754 31.7087 40.3334 30.25 40.3334Z" fill="#4CAF50"/>
<path d="M34.4672 14.19H27.8672C27.1379 14.19 26.4384 13.9003 25.9227 13.3845C25.4069 12.8688 25.1172 12.1693 25.1172 11.44V4.83999C25.1164 4.63997 25.1751 4.44424 25.2858 4.27768C25.3966 4.11113 25.5544 3.98127 25.7391 3.90462C25.9239 3.82797 26.1272 3.80799 26.3233 3.84723C26.5195 3.88647 26.6995 3.98316 26.8405 4.12499L35.1822 12.4667C35.324 12.6077 35.4207 12.7877 35.4599 12.9838C35.4992 13.18 35.4792 13.3833 35.4026 13.5681C35.3259 13.7528 35.1961 13.9106 35.0295 14.0213C34.8629 14.1321 34.6672 14.1908 34.4672 14.19Z" fill="#B9F6CA"/>
<path d="M16.8478 33.2017C16.329 33.2195 15.8135 33.1126 15.3445 32.89C14.9232 32.6851 14.5723 32.3597 14.3362 31.955C14.0861 31.5139 13.9595 31.0136 13.9695 30.5067C13.9576 29.9995 14.0844 29.4987 14.3362 29.0583C14.5678 28.6546 14.9206 28.3339 15.3445 28.1417C15.8119 27.9127 16.3275 27.7995 16.8478 27.8117C17.061 27.7858 17.2764 27.7858 17.4895 27.8117C17.7298 27.8472 17.9641 27.915 18.1862 28.0133C18.3319 28.0693 18.4545 28.1726 18.5345 28.3067C18.6037 28.436 18.6354 28.582 18.6262 28.7283C18.614 28.8649 18.57 28.9968 18.4978 29.1133C18.4649 29.1722 18.4202 29.2237 18.3666 29.2647C18.313 29.3057 18.2516 29.3353 18.1862 29.3517C18.1202 29.3827 18.0482 29.3988 17.9753 29.3988C17.9025 29.3988 17.8305 29.3827 17.7645 29.3517C17.5412 29.2449 17.2971 29.1885 17.0495 29.1867C16.8907 29.1772 16.7317 29.2018 16.5831 29.2587C16.4345 29.3156 16.2997 29.4035 16.1878 29.5167C15.9773 29.7882 15.873 30.1271 15.8945 30.47C15.8695 30.8133 15.9742 31.1535 16.1878 31.4233C16.2957 31.5428 16.4293 31.6363 16.5786 31.6966C16.7279 31.757 16.8889 31.7826 17.0495 31.7717H17.3978L17.7645 31.6433C17.8305 31.6123 17.9025 31.5962 17.9753 31.5962C18.0482 31.5962 18.1202 31.6123 18.1862 31.6433C18.2487 31.661 18.307 31.6912 18.3575 31.7322C18.4079 31.7732 18.4495 31.824 18.4795 31.8817C18.5596 31.9944 18.6042 32.1284 18.6078 32.2667C18.624 32.4135 18.5918 32.5615 18.5162 32.6883C18.4362 32.8224 18.3135 32.9257 18.1678 32.9817C17.9482 33.0691 17.7212 33.1366 17.4895 33.1833L16.8478 33.2017Z" fill="#E8F5E9"/>
<path d="M21.6154 33.2017C21.3044 33.229 20.9915 33.229 20.6804 33.2017C20.3828 33.1662 20.0923 33.0858 19.8188 32.9634C19.7236 32.9369 19.6352 32.8905 19.5594 32.8273C19.4835 32.7641 19.4219 32.6855 19.3788 32.5967C19.3243 32.4425 19.3243 32.2742 19.3788 32.12C19.4267 31.9651 19.5315 31.8341 19.6721 31.7534C19.7512 31.7116 19.8393 31.6898 19.9288 31.6898C20.0182 31.6898 20.1063 31.7116 20.1854 31.7534C20.433 31.8556 20.6913 31.9294 20.9555 31.9734C21.1869 31.9996 21.4206 31.9996 21.6521 31.9734C21.8421 31.9885 22.0325 31.9504 22.2021 31.8634C22.2534 31.8338 22.2958 31.7909 22.3248 31.7393C22.3539 31.6877 22.3685 31.6292 22.3671 31.57C22.3701 31.5243 22.3616 31.4785 22.3424 31.4369C22.3232 31.3953 22.2939 31.3591 22.2571 31.3317C22.1848 31.2584 22.0971 31.2021 22.0004 31.1667L20.8454 30.965C20.467 30.9315 20.1112 30.7698 19.8371 30.5067C19.7152 30.3767 19.62 30.2241 19.5571 30.0573C19.4942 29.8906 19.4648 29.7131 19.4704 29.535C19.4704 29.1978 19.5798 28.8698 19.7821 28.6C20.0038 28.3263 20.2951 28.1173 20.6254 27.995C21.0233 27.8432 21.4464 27.7686 21.8721 27.775C22.1589 27.7537 22.447 27.7537 22.7338 27.775C22.9922 27.8272 23.2442 27.9071 23.4855 28.0134C23.5699 28.0435 23.6466 28.092 23.7101 28.1554C23.7735 28.2188 23.822 28.2956 23.8521 28.38C23.9066 28.5342 23.9066 28.7025 23.8521 28.8567C23.7957 29.0079 23.6844 29.1322 23.5405 29.205C23.4613 29.2468 23.3732 29.2686 23.2838 29.2686C23.1943 29.2686 23.1062 29.2468 23.0271 29.205C22.8252 29.1209 22.6167 29.0535 22.4038 29.0034C22.2392 28.9869 22.0734 28.9869 21.9088 29.0034C21.6991 28.9894 21.4897 29.0338 21.3038 29.1317C21.2491 29.1588 21.203 29.2006 21.1706 29.2524C21.1382 29.3042 21.1209 29.364 21.1205 29.425C21.1205 29.6084 21.2488 29.7184 21.5054 29.7734L22.6788 29.975C23.0584 30.0113 23.4173 30.1651 23.7055 30.415C23.8286 30.5404 23.9246 30.6897 23.9877 30.8536C24.0508 31.0176 24.0795 31.1928 24.0721 31.3684C24.0831 31.6263 24.0283 31.8828 23.9129 32.1137C23.7974 32.3447 23.6251 32.5424 23.4121 32.6884C22.8876 33.0558 22.2549 33.2366 21.6154 33.2017Z" fill="#E8F5E9"/>
<path d="M27.2067 33.1833C26.9773 33.1877 26.7524 33.1191 26.5645 32.9873C26.3767 32.8554 26.2356 32.6673 26.1617 32.45L24.6584 29.0216C24.5953 28.8933 24.5625 28.7522 24.5625 28.6091C24.5625 28.4661 24.5953 28.325 24.6584 28.1966C24.7456 28.0667 24.8672 27.9636 25.0097 27.8988C25.1522 27.8341 25.3098 27.8102 25.4651 27.83C25.6563 27.8202 25.8447 27.8786 25.9967 27.995C26.1828 28.1459 26.3174 28.3509 26.3817 28.5816L27.2617 30.855L28.1967 28.5633C28.2675 28.3452 28.3939 28.1494 28.5634 27.995C28.7362 27.8785 28.9419 27.8206 29.1501 27.83C29.3297 27.8224 29.5059 27.8812 29.6451 27.995C29.7792 28.1047 29.8648 28.2627 29.8834 28.435C29.9148 28.6353 29.8828 28.8404 29.7917 29.0216L28.2517 32.4683C28.1772 32.6838 28.0354 32.8696 27.8473 32.9983C27.6591 33.1271 27.4346 33.1919 27.2067 33.1833Z" fill="#E8F5E9"/>
</svg>
