<svg width="17" height="21" viewBox="0 0 17 21" fill="none" xmlns="http://www.w3.org/2000/svg">
<path d="M11.8207 0.078125H4.91029C3.76525 0.0794482 2.66749 0.51886 1.85782 1.29997C1.04816 2.08109 0.59268 3.14013 0.591309 4.24479V15.9115C0.59268 17.0161 1.04816 18.0752 1.85782 18.8563C2.66749 19.6374 3.76525 20.0768 4.91029 20.0781H11.8207C12.9657 20.0768 14.0635 19.6374 14.8731 18.8563C15.6828 18.0752 16.1383 17.0161 16.1396 15.9115V4.24479C16.1383 3.14013 15.6828 2.08109 14.8731 1.29997C14.0635 0.51886 12.9657 0.0794482 11.8207 0.078125V0.078125ZM14.4121 15.9115C14.4121 16.5745 14.139 17.2104 13.6531 17.6792C13.1671 18.1481 12.5079 18.4115 11.8207 18.4115H9.22928V17.5781C9.22928 17.3571 9.13827 17.1451 8.97628 16.9889C8.81428 16.8326 8.59457 16.7448 8.36548 16.7448C8.13639 16.7448 7.91668 16.8326 7.75468 16.9889C7.59269 17.1451 7.50168 17.3571 7.50168 17.5781V18.4115H4.91029C4.22301 18.4115 3.56388 18.1481 3.0779 17.6792C2.59192 17.2104 2.3189 16.5745 2.3189 15.9115V4.24479C2.3189 3.58175 2.59192 2.94586 3.0779 2.47702C3.56388 2.00818 4.22301 1.74479 4.91029 1.74479H11.8207C12.5079 1.74479 13.1671 2.00818 13.6531 2.47702C14.139 2.94586 14.4121 3.58175 14.4121 4.24479V15.9115ZM11.8207 13.4115C11.8207 13.6325 11.7297 13.8444 11.5677 14.0007C11.4057 14.157 11.186 14.2448 10.9569 14.2448H5.77409C5.545 14.2448 5.32529 14.157 5.16329 14.0007C5.0013 13.8444 4.91029 13.6325 4.91029 13.4115C4.91029 13.1904 5.0013 12.9785 5.16329 12.8222C5.32529 12.6659 5.545 12.5781 5.77409 12.5781H10.9569C11.186 12.5781 11.4057 12.6659 11.5677 12.8222C11.7297 12.9785 11.8207 13.1904 11.8207 13.4115ZM6.63789 10.9115C6.86698 10.9115 7.08669 10.8237 7.24868 10.6674C7.41068 10.5111 7.50168 10.2991 7.50168 10.0781V9.24479H9.22928V10.0781C9.22928 10.2991 9.32028 10.5111 9.48228 10.6674C9.64427 10.8237 9.86398 10.9115 10.0931 10.9115C10.3222 10.9115 10.5419 10.8237 10.7039 10.6674C10.8659 10.5111 10.9569 10.2991 10.9569 10.0781V6.74479C10.9569 6.08175 10.6838 5.44586 10.1979 4.97702C9.71189 4.50818 9.05276 4.24479 8.36548 4.24479C7.6782 4.24479 7.01907 4.50818 6.53309 4.97702C6.04711 5.44586 5.77409 6.08175 5.77409 6.74479V10.0781C5.77409 10.2991 5.8651 10.5111 6.02709 10.6674C6.18908 10.8237 6.40879 10.9115 6.63789 10.9115ZM8.36548 5.91146C8.59457 5.91146 8.81428 5.99925 8.97628 6.15553C9.13827 6.31181 9.22928 6.52378 9.22928 6.74479V7.57812H7.50168V6.74479C7.50168 6.52378 7.59269 6.31181 7.75468 6.15553C7.91668 5.99925 8.13639 5.91146 8.36548 5.91146Z" fill="black"/>
</svg>
