<svg width="24" height="24" viewBox="0 0 24 24" fill="none" xmlns="http://www.w3.org/2000/svg">
<path d="M22.125 11H20.375V9C20.375 8.73478 20.2828 8.48043 20.1187 8.29289C19.9546 8.10536 19.7321 8 19.5 8C19.2679 8 19.0454 8.10536 18.8813 8.29289C18.7172 8.48043 18.625 8.73478 18.625 9V11H16.875C16.6429 11 16.4204 11.1054 16.2563 11.2929C16.0922 11.4804 16 11.7348 16 12C16 12.2652 16.0922 12.5196 16.2563 12.7071C16.4204 12.8946 16.6429 13 16.875 13H18.625V15C18.625 15.2652 18.7172 15.5196 18.8813 15.7071C19.0454 15.8946 19.2679 16 19.5 16C19.7321 16 19.9546 15.8946 20.1187 15.7071C20.2828 15.5196 20.375 15.2652 20.375 15V13H22.125C22.3571 13 22.5796 12.8946 22.7437 12.7071C22.9078 12.5196 23 12.2652 23 12C23 11.7348 22.9078 11.4804 22.7437 11.2929C22.5796 11.1054 22.3571 11 22.125 11Z" fill="black"/>
<path d="M9.5 12C10.5878 12 11.6512 11.6774 12.5556 11.0731C13.4601 10.4687 14.1651 9.60975 14.5813 8.60476C14.9976 7.59977 15.1065 6.4939 14.8943 5.427C14.6821 4.36011 14.1583 3.3801 13.3891 2.61091C12.6199 1.84173 11.6399 1.3179 10.573 1.10568C9.5061 0.893465 8.40023 1.00238 7.39524 1.41866C6.39025 1.83495 5.53126 2.5399 4.92692 3.44437C4.32257 4.34884 4 5.4122 4 6.5C4.00146 7.95824 4.58139 9.35635 5.61252 10.3875C6.64366 11.4186 8.04176 11.9985 9.5 12ZM9.5 2.83334C10.2252 2.83334 10.9341 3.04838 11.5371 3.45128C12.1401 3.85418 12.61 4.42683 12.8876 5.09683C13.1651 5.76682 13.2377 6.50407 13.0962 7.21533C12.9547 7.9266 12.6055 8.57993 12.0927 9.09273C11.5799 9.60552 10.9266 9.95473 10.2153 10.0962C9.50407 10.2377 8.76682 10.1651 8.09683 9.88756C7.42683 9.61004 6.85418 9.14007 6.45128 8.53709C6.04838 7.93411 5.83333 7.2252 5.83333 6.5C5.83333 5.52754 6.21964 4.59491 6.90727 3.90728C7.59491 3.21964 8.52754 2.83334 9.5 2.83334Z" fill="black"/>
<path d="M9 14C6.87899 14.0024 4.84553 14.8565 3.34574 16.3751C1.84596 17.8936 1.00235 19.9525 1 22.1C1 22.3387 1.09365 22.5676 1.26035 22.7364C1.42705 22.9052 1.65314 23 1.88889 23C2.12464 23 2.35073 22.9052 2.51743 22.7364C2.68413 22.5676 2.77778 22.3387 2.77778 22.1C2.77778 20.4291 3.43333 18.8267 4.60022 17.6452C5.76712 16.4637 7.34976 15.8 9 15.8C10.6502 15.8 12.2329 16.4637 13.3998 17.6452C14.5667 18.8267 15.2222 20.4291 15.2222 22.1C15.2222 22.3387 15.3159 22.5676 15.4826 22.7364C15.6493 22.9052 15.8754 23 16.1111 23C16.3469 23 16.573 22.9052 16.7397 22.7364C16.9064 22.5676 17 22.3387 17 22.1C16.9976 19.9525 16.154 17.8936 14.6543 16.3751C13.1545 14.8565 11.121 14.0024 9 14Z" fill="black"/>
</svg>
