<svg width="18" height="18" viewBox="0 0 18 18" fill="none" xmlns="http://www.w3.org/2000/svg">
<path d="M18.0007 17.2507C18.0007 17.4496 17.9217 17.6403 17.7811 17.781C17.6404 17.9216 17.4496 18.0007 17.2507 18.0007H0.75072C0.551808 18.0007 0.361043 17.9216 0.22039 17.781C0.079738 17.6403 0.000720372 17.4496 0.000720372 17.2507C0.000720372 17.0517 0.079738 16.861 0.22039 16.7203C0.361043 16.5797 0.551808 16.5007 0.75072 16.5007H17.2507C17.4496 16.5007 17.6404 16.5797 17.7811 16.7203C17.9217 16.861 18.0007 17.0517 18.0007 17.2507ZM0.21897 6.41465C0.0573621 6.1149 -0.0175086 5.77603 0.00276069 5.43609C0.02303 5.09615 0.137637 4.76858 0.33372 4.49015C0.654164 4.01999 1.0833 3.63407 1.58472 3.36515L7.21047 0.437152C7.76342 0.149625 8.37749 -0.000488281 9.00072 -0.000488281C9.62396 -0.000488281 10.238 0.149625 10.791 0.437152L16.416 3.3674C16.9174 3.63632 17.3465 4.02224 17.667 4.4924C17.8631 4.77083 17.9777 5.0984 17.9979 5.43834C18.0182 5.77828 17.9433 6.11715 17.7817 6.4169C17.6077 6.74603 17.3468 7.02111 17.0273 7.21219C16.7078 7.40328 16.342 7.50306 15.9697 7.50065H15.7507V13.5007H16.5007C16.6996 13.5007 16.8904 13.5797 17.0311 13.7203C17.1717 13.861 17.2507 14.0517 17.2507 14.2507C17.2507 14.4496 17.1717 14.6403 17.0311 14.781C16.8904 14.9216 16.6996 15.0007 16.5007 15.0007H1.50072C1.30181 15.0007 1.11104 14.9216 0.97039 14.781C0.829738 14.6403 0.75072 14.4496 0.75072 14.2507C0.75072 14.0517 0.829738 13.861 0.97039 13.7203C1.11104 13.5797 1.30181 13.5007 1.50072 13.5007H2.25072V7.50065H2.03172C1.65909 7.50298 1.29297 7.40294 0.973312 7.21143C0.653649 7.01992 0.392714 6.74431 0.21897 6.41465ZM3.75072 13.5007H6.00072V7.50065H3.75072V13.5007ZM7.50072 7.50065V13.5007H10.5007V7.50065H7.50072ZM14.2507 7.50065H12.0007V13.5007H14.2507V7.50065ZM1.54797 5.7194C1.59503 5.80616 1.66506 5.8783 1.75038 5.92791C1.83571 5.97751 1.93304 6.00268 2.03172 6.00065H15.9697C16.0684 6.00268 16.1657 5.97751 16.2511 5.92791C16.3364 5.8783 16.4064 5.80616 16.4535 5.7194C16.4877 5.66208 16.5043 5.5959 16.5011 5.52918C16.4979 5.46247 16.4751 5.39818 16.4355 5.3444C16.2538 5.07434 16.0096 4.85206 15.7237 4.6964L10.0987 1.76615C9.75973 1.59022 9.3834 1.49838 9.00147 1.49838C8.61954 1.49838 8.24322 1.59022 7.90422 1.76615L2.27922 4.6964C1.99346 4.85256 1.74937 5.07505 1.56747 5.34515C1.52779 5.39871 1.50477 5.46277 1.5013 5.52934C1.49784 5.5959 1.51407 5.66201 1.54797 5.7194Z" fill="#1A1A1A"/>
</svg>
