<svg width="11" height="20" viewBox="0 0 11 20" fill="none" xmlns="http://www.w3.org/2000/svg">
<path d="M8.57493 0.241186L1.7666 7.04952C1.37857 7.43657 1.07071 7.89636 0.860658 8.40257C0.650604 8.90878 0.54248 9.45146 0.54248 9.99952C0.54248 10.5476 0.650604 11.0903 0.860658 11.5965C1.07071 12.1027 1.37857 12.5625 1.7666 12.9495L8.57493 19.7579C8.73185 19.9148 8.94468 20.0029 9.1666 20.0029C9.38851 20.0029 9.60134 19.9148 9.75826 19.7579C9.91518 19.6009 10.0033 19.3881 10.0033 19.1662C10.0033 18.9443 9.91518 18.7314 9.75826 18.5745L2.94993 11.7662C2.48176 11.2974 2.2188 10.662 2.2188 9.99952C2.2188 9.33702 2.48176 8.7016 2.94993 8.23285L9.75826 1.42452C9.83637 1.34705 9.89837 1.25488 9.94067 1.15333C9.98298 1.05178 10.0048 0.942863 10.0048 0.832853C10.0048 0.722843 9.98298 0.613922 9.94067 0.512373C9.89837 0.410822 9.83637 0.318655 9.75826 0.241186C9.68079 0.16308 9.58862 0.101084 9.48708 0.0587769C9.38553 0.016468 9.27661 -0.00531197 9.1666 -0.00531197C9.05659 -0.00531197 8.94766 0.016468 8.84611 0.0587769C8.74457 0.101084 8.6524 0.16308 8.57493 0.241186Z" fill="black"/>
</svg>
