<svg width="27" height="14" viewBox="0 0 27 14" fill="none" xmlns="http://www.w3.org/2000/svg">
<path d="M25.2291 4.43275L21.0061 0.316577C20.9047 0.217906 20.784 0.139589 20.651 0.0861435C20.5181 0.0326977 20.3754 0.00517941 20.2314 0.00517941C20.0873 0.00517941 19.9447 0.0326977 19.8117 0.0861435C19.6787 0.139589 19.558 0.217906 19.4566 0.316577C19.3543 0.414442 19.2731 0.530876 19.2177 0.659161C19.1623 0.787446 19.1338 0.925041 19.1338 1.06401C19.1338 1.20299 19.1623 1.34059 19.2177 1.46887C19.2731 1.59716 19.3543 1.71359 19.4566 1.81145L23.3413 5.58023L1.09145 5.58023C0.802046 5.58023 0.524488 5.69114 0.319847 5.88857C0.115204 6.08599 0.000238419 6.35376 0.000238419 6.63296C0.000238419 6.91216 0.115204 7.17993 0.319847 7.37735C0.524488 7.57478 0.802046 7.68569 1.09145 7.68569L23.4068 7.68569L19.4566 11.4966C19.2631 11.6924 19.1552 11.9525 19.1552 12.223C19.1552 12.4935 19.2631 12.7536 19.4566 12.9493C19.558 13.048 19.6787 13.1263 19.8117 13.1798C19.9447 13.2332 20.0873 13.2607 20.2314 13.2607C20.3754 13.2607 20.5181 13.2332 20.651 13.1798C20.784 13.1263 20.9047 13.048 21.0061 12.9493L25.2291 8.89633C25.8422 8.30417 26.1865 7.50147 26.1865 6.66454C26.1865 5.82762 25.8422 5.02492 25.2291 4.43275Z" fill="#777777"/>
</svg>
