<svg width="20" height="20" viewBox="0 0 20 20" fill="none" xmlns="http://www.w3.org/2000/svg">
<path d="M19.9995 19.1667C19.9995 19.3877 19.9117 19.5997 19.7554 19.7559C19.5992 19.9122 19.3872 20 19.1662 20H0.834599C0.613606 20 0.401664 19.9122 0.245398 19.7559C0.0891321 19.5997 0.00134282 19.3877 0.00134282 19.1667C0.00134282 18.9457 0.0891321 18.7338 0.245398 18.5775C0.401664 18.4212 0.613606 18.3334 0.834599 18.3334H19.1662C19.3872 18.3334 19.5992 18.4212 19.7554 18.5775C19.9117 18.7338 19.9995 18.9457 19.9995 19.1667ZM0.24382 7.12748C0.0642722 6.79444 -0.0189098 6.41795 0.00360964 6.04026C0.026129 5.66257 0.153459 5.29863 0.371309 4.98928C0.727324 4.46691 1.2041 4.03815 1.76118 3.73936L8.01143 0.486236C8.62576 0.166782 9.308 0 10.0004 0C10.6928 0 11.3751 0.166782 11.9894 0.486236L18.2388 3.74186C18.7959 4.04064 19.2727 4.46941 19.6287 4.99178C19.8465 5.30113 19.9739 5.66507 19.9964 6.04276C20.0189 6.42045 19.9357 6.79694 19.7562 7.12998C19.5629 7.49565 19.273 7.80127 18.918 8.01358C18.563 8.22589 18.1566 8.33674 17.743 8.33407H17.4997V15.0003H18.333C18.554 15.0003 18.7659 15.0881 18.9222 15.2444C19.0784 15.4006 19.1662 15.6126 19.1662 15.8336C19.1662 16.0546 19.0784 16.2665 18.9222 16.4228C18.7659 16.5791 18.554 16.6669 18.333 16.6669H1.66786C1.44686 16.6669 1.23492 16.5791 1.07865 16.4228C0.922388 16.2665 0.834599 16.0546 0.834599 15.8336C0.834599 15.6126 0.922388 15.4006 1.07865 15.2444C1.23492 15.0881 1.44686 15.0003 1.66786 15.0003H2.50111V8.33407H2.2578C1.8438 8.33666 1.43705 8.2255 1.0819 8.01273C0.726752 7.79996 0.436851 7.49374 0.24382 7.12748ZM4.16762 15.0003H6.66739V8.33407H4.16762V15.0003ZM8.33391 8.33407V15.0003H11.6669V8.33407H8.33391ZM15.8332 8.33407H13.3334V15.0003H15.8332V8.33407ZM1.72035 6.35503C1.77263 6.45142 1.85043 6.53157 1.94523 6.58669C2.04003 6.6418 2.14817 6.66976 2.2578 6.66751H17.743C17.8527 6.66976 17.9608 6.6418 18.0556 6.58669C18.1504 6.53157 18.2282 6.45142 18.2805 6.35503C18.3186 6.29134 18.337 6.21781 18.3334 6.14369C18.3299 6.06957 18.3045 5.99814 18.2605 5.93839C18.0586 5.63834 17.7873 5.39138 17.4697 5.21844L11.2203 1.96281C10.8437 1.76734 10.4256 1.66531 10.0013 1.66531C9.57693 1.66531 9.15882 1.76734 8.7822 1.96281L2.53278 5.21844C2.21529 5.39193 1.9441 5.63912 1.74201 5.93922C1.69793 5.99873 1.67236 6.06991 1.6685 6.14386C1.66465 6.21782 1.68268 6.29127 1.72035 6.35503Z" fill="white"/>
</svg>
