<svg width="25" height="24" viewBox="0 0 25 24" fill="none" xmlns="http://www.w3.org/2000/svg">
<path fill-rule="evenodd" clip-rule="evenodd" d="M12.5663 3C7.46781 3 3.33467 7.02944 3.33467 12C3.33467 16.9706 7.46781 21 12.5663 21C17.6648 21 21.7979 16.9706 21.7979 12C21.7979 7.02944 17.6648 3 12.5663 3ZM1.2832 12C1.2832 5.92487 6.33482 1 12.5663 1C18.7977 1 23.8494 5.92487 23.8494 12C23.8494 18.0751 18.7977 23 12.5663 23C6.33482 23 1.2832 18.0751 1.2832 12Z" fill="#04B983"/>
<ellipse cx="12.5661" cy="12" rx="9.23162" ry="9" fill="#04B983"/>
<path fill-rule="evenodd" clip-rule="evenodd" d="M18.9329 9.20719L11.7528 16.2072C11.5604 16.3947 11.2995 16.5001 11.0275 16.5001C10.7555 16.5001 10.4945 16.3947 10.3022 16.2072L6.19922 12.2072L7.64982 10.793L11.0275 14.0859L17.4823 7.79297L18.9329 9.20719Z" fill="white"/>
</svg>
