<svg width="12" height="20" viewBox="0 0 12 20" fill="none" xmlns="http://www.w3.org/2000/svg">
<path d="M1.10151 1.66879H5.18016L5.18016 17.67L1.67252 14.0821C1.51868 13.9301 1.31262 13.846 1.09874 13.8479C0.884858 13.8498 0.680263 13.9375 0.52902 14.0922C0.377777 14.2469 0.291987 14.4562 0.290129 14.675C0.28827 14.8938 0.370491 15.1045 0.519083 15.2619L4.55368 19.3888C4.74305 19.5826 4.96789 19.7363 5.21535 19.8412C5.4628 19.946 5.72803 20 5.99588 20C6.26374 20 6.52897 19.946 6.77642 19.8412C7.02388 19.7363 7.24872 19.5826 7.43809 19.3888L11.4759 15.2586C11.6289 15.1017 11.7147 14.8891 11.7144 14.6675C11.714 14.4459 11.6277 14.2335 11.4743 14.0771C11.3209 13.9206 11.1131 13.8329 10.8964 13.8332C10.6798 13.8335 10.4722 13.9218 10.3192 14.0787L6.81161 17.6666L6.81161 1.66879H10.8903C11.1066 1.66879 11.3141 1.58088 11.4671 1.4244C11.62 1.26792 11.706 1.05569 11.706 0.834396C11.706 0.6131 11.62 0.400867 11.4671 0.244389C11.3141 0.0879097 11.1066 0 10.8903 0H1.10151C0.885169 0 0.677684 0.0879097 0.524705 0.244389C0.371726 0.400867 0.285785 0.6131 0.285785 0.834396C0.285785 1.05569 0.371726 1.26792 0.524705 1.4244C0.677684 1.58088 0.885169 1.66879 1.10151 1.66879Z" fill="#979797"/>
</svg>
