<svg width="18" height="18" viewBox="0 0 18 18" fill="none" xmlns="http://www.w3.org/2000/svg">
<path d="M17.9967 6.2999C17.967 5.7866 17.3565 5.3855 16.1355 5.0795C16.1766 4.9895 16.1997 4.8959 16.2 4.7987V2.6999H16.1949C16.0875 0.951502 8.9229 0.899902 8.1 0.899902C7.2771 0.899902 0.1125 0.951502 0.0051 2.6999H0V2.7389V4.7996C0.0015 5.3696 0.7371 5.8157 1.8315 6.1478C1.8165 6.1976 1.8075 6.2483 1.8045 6.2999H1.8V6.3389V8.396C0.621 8.6996 0.0321 9.095 0.003 9.5999H0V9.6389V11.6996C0.0009 12.0965 0.3588 12.4331 0.9444 12.7136C0.9222 12.7745 0.9084 12.8366 0.9045 12.9002H0.9V12.9392V14.9999C0.9024 15.9977 3.1491 16.6172 5.6454 16.9064C5.6637 16.91 5.6805 16.9175 5.7 16.9175C5.7057 16.9175 5.7105 16.9145 5.7162 16.9142C6.1974 16.9685 6.6864 17.0108 7.1703 17.0411C7.1805 17.0423 7.1895 17.0471 7.2 17.0471C7.2057 17.0471 7.2102 17.0441 7.2156 17.0438C7.83 17.081 8.4345 17.0999 9 17.0999C9.5655 17.0999 10.17 17.081 10.7844 17.0435C10.7898 17.0438 10.7946 17.0468 10.8 17.0468C10.8105 17.0468 10.8195 17.0417 10.8297 17.0408C11.3136 17.0105 11.8026 16.9685 12.2838 16.9139C12.2895 16.9139 12.2943 16.9169 12.3 16.9169C12.3195 16.9169 12.3363 16.9094 12.3546 16.9058C14.8509 16.6166 17.0973 15.9968 17.1 14.9987V12.8999H17.0952C17.0742 12.5321 16.7607 12.2252 16.1415 11.9687C16.1793 11.882 16.2 11.792 16.2 11.6987V9.7379C17.277 9.4067 17.9985 8.9636 18 8.3987V6.2999H17.9967ZM15.5676 11.7962L15.4653 11.8859C15.3078 12.0248 15.0453 12.1649 14.7 12.2999V10.8695C15.0567 10.7453 15.3603 10.6076 15.6 10.4567V11.6981C15.6 11.729 15.5886 11.762 15.5676 11.7962ZM8.8578 13.1903C8.814 13.1915 8.7699 13.1921 8.7258 13.193C8.6187 13.1951 8.5089 13.1957 8.4003 13.1966V11.6981C8.4828 11.6972 8.5653 11.696 8.6478 11.6945C8.6637 11.6942 8.6796 11.6939 8.6955 11.6936C8.9976 11.6879 9.2997 11.6786 9.6003 11.6648V13.1627C9.5361 13.166 9.4716 13.169 9.4065 13.1717C9.2259 13.1798 9.0435 13.1858 8.8578 13.1903ZM7.5477 13.1945C7.4103 13.1921 7.2735 13.1888 7.1376 13.1846C7.1208 13.184 7.104 13.1834 7.0872 13.1828C6.9237 13.1774 6.7614 13.1705 6.6003 13.1627V11.6651C6.9009 11.6792 7.203 11.6885 7.5051 11.6939C7.521 11.6942 7.5369 11.6945 7.5525 11.6948C7.635 11.6963 7.7175 11.6975 7.8 11.6984V13.1978C7.7418 13.1972 7.6836 13.1972 7.6257 13.1963C7.5993 13.1957 7.5738 13.1948 7.5477 13.1945ZM2.1291 12.5105C2.1192 12.5075 2.1099 12.5048 2.1 12.5021V11.0528C2.3802 11.1284 2.6814 11.1974 3 11.2601V12.7244C2.7246 12.6659 2.4705 12.6044 2.2392 12.5414C2.2026 12.5309 2.1648 12.521 2.1291 12.5105ZM8.4525 14.9948C8.535 14.9963 8.6175 14.9975 8.7 14.9984V16.4981C8.2854 16.4942 7.8852 16.4822 7.5 16.4633V14.9654C7.8006 14.9795 8.1027 14.9888 8.4048 14.9942C8.4207 14.9942 8.4366 14.9945 8.4525 14.9948ZM9.5952 14.9939C9.8973 14.9882 10.1994 14.9789 10.5 14.9651V16.463C10.1148 16.4819 9.7146 16.4939 9.3 16.4978V14.9981C9.3825 14.9972 9.465 14.996 9.5475 14.9945C9.5634 14.9945 9.5793 14.9942 9.5952 14.9939ZM12 14.8583V16.3481C11.7117 16.3784 11.4117 16.4051 11.1 16.427V14.9309C11.4042 14.9111 11.7048 14.8868 12 14.8583ZM12.6 14.7935C12.9093 14.7563 13.2096 14.714 13.5 14.6669V16.1399C13.2174 16.1897 12.9171 16.2356 12.6 16.2773V14.7935ZM14.1 14.5598C14.4186 14.4971 14.7198 14.4281 15 14.3525V15.8018C14.7327 15.8789 14.4318 15.9536 14.1 16.0241V14.5598ZM3.9 14.5598V16.0241C3.5682 15.9536 3.2673 15.8789 3 15.8018V14.3525C3.2802 14.4281 3.5814 14.4974 3.9 14.5598ZM4.5 14.6672C4.7904 14.7143 5.0907 14.7566 5.4 14.7938V16.2776C5.0829 16.2359 4.7826 16.19 4.5 16.1402V14.6672ZM6 14.8583C6.2952 14.8868 6.5958 14.9111 6.9 14.9312V16.4273C6.5883 16.4054 6.2883 16.3787 6 16.3484V14.8583ZM5.2557 13.0643C5.2251 13.0613 5.1948 13.058 5.1645 13.055C5.1429 13.0529 5.1216 13.0502 5.1 13.0481V11.5586C5.3952 11.5871 5.6958 11.6114 6 11.6315V13.1264C5.748 13.1084 5.499 13.088 5.2557 13.0643ZM4.5 11.4935V12.9773C4.1829 12.9356 3.8826 12.8897 3.6 12.8399V11.3669C3.8904 11.414 4.1907 11.4566 4.5 11.4935ZM10.3998 13.1123C10.3338 13.1174 10.2672 13.1225 10.2 13.1273V11.6312C10.5042 11.6111 10.8048 11.5871 11.1 11.5583V13.0481C10.9146 13.0676 10.725 13.0859 10.5303 13.1018C10.4868 13.1057 10.4433 13.109 10.3998 13.1123ZM11.7 12.9773V11.4935C12.0093 11.4563 12.3096 11.414 12.6 11.3669V12.8399C12.3174 12.8897 12.0171 12.9359 11.7 12.9773ZM13.2 11.2598C13.5186 11.1971 13.8198 11.1281 14.1 11.0525V12.5018C13.8327 12.5789 13.5318 12.6536 13.2 12.7241V11.2598ZM9.0975 9.8894C8.8719 9.8837 8.6514 9.875 8.4348 9.8645C8.4231 9.8639 8.4114 9.8633 8.4 9.863V8.3651C8.7006 8.3792 9.0027 8.3885 9.3048 8.3939C9.3207 8.3942 9.3366 8.3945 9.3522 8.3948C9.4347 8.3963 9.5172 8.3975 9.5997 8.3984V9.8963C9.4536 9.8948 9.3063 9.8942 9.1638 9.8909C9.1419 9.8903 9.1194 9.89 9.0975 9.8894ZM2.1 5.6021V4.1528C2.3802 4.2284 2.6814 4.2974 3 4.3601V5.8244C2.9631 5.8166 2.925 5.8088 2.889 5.801C2.7294 5.7659 2.5737 5.7293 2.4249 5.6906C2.3115 5.6615 2.2038 5.6318 2.1 5.6021ZM7.5525 4.7948C7.635 4.7963 7.7175 4.7975 7.8 4.7984V6.2963C7.3962 6.2924 6.9948 6.2819 6.6 6.2621V4.7654C6.9006 4.7795 7.2027 4.7888 7.5048 4.7942C7.5207 4.7942 7.5366 4.7945 7.5525 4.7948ZM8.6952 4.7939C8.9973 4.7882 9.2994 4.7789 9.6 4.7651V6.2618C9.549 6.2642 9.5001 6.2678 9.4488 6.2702C9.4446 6.2705 9.4404 6.2705 9.4359 6.2708C9.2346 6.2798 9.0294 6.2864 8.8215 6.2912C8.7891 6.2921 8.7567 6.2924 8.7243 6.2933C8.6175 6.2954 8.5083 6.2957 8.4 6.2969V4.7984C8.4825 4.7975 8.565 4.7963 8.6475 4.7948C8.6634 4.7945 8.6793 4.7942 8.6952 4.7939ZM15.5313 4.9445L15.5229 4.9427L15.4137 5.0276C15.2553 5.1509 15.012 5.2757 14.7 5.3963V3.9692C15.0567 3.845 15.3603 3.7073 15.6 3.5564V4.7978C15.6 4.8434 15.576 4.8926 15.5313 4.9445ZM11.7 6.0755V4.5935C12.0093 4.5563 12.3096 4.514 12.6 4.4669V5.9375C12.3156 5.9879 12.0162 6.0341 11.7 6.0755ZM13.2 5.822V4.3601C13.5186 4.2974 13.8198 4.2284 14.1 4.1528V5.5988C13.8312 5.6771 13.5285 5.7518 13.2 5.822ZM11.1 4.6583V6.1463C10.8102 6.1769 10.5102 6.2036 10.2 6.2258V4.7312C10.5042 4.7111 10.8048 4.6868 11.1 4.6583ZM5.1 6.1469V4.6583C5.3952 4.6868 5.6958 4.7111 6 4.7312V6.2246C5.6946 6.2027 5.3934 6.1778 5.1 6.1469ZM4.5 4.5935V6.0758C4.4406 6.068 4.3788 6.0617 4.32 6.0536C4.2816 6.0482 4.245 6.0425 4.2072 6.0371C4.0338 6.0122 3.8643 5.9855 3.6981 5.9576C3.6648 5.9519 3.6327 5.9459 3.6 5.9402V4.4672C3.8904 4.514 4.1907 4.5566 4.5 4.5935ZM7.7256 9.8216C7.6851 9.8186 7.6443 9.8156 7.6041 9.8126C7.4121 9.7976 7.2246 9.7811 7.0416 9.7628C7.0023 9.7589 6.963 9.7547 6.924 9.7508C6.9159 9.7499 6.9081 9.7487 6.9 9.7481V8.2583C7.1952 8.2868 7.4958 8.3111 7.8 8.3312V9.8264C7.7757 9.8246 7.7499 9.8234 7.7256 9.8216ZM5.7435 9.5975C5.6247 9.5786 5.5131 9.5582 5.4 9.5384V8.0672C5.6904 8.1143 5.9907 8.1566 6.3 8.1938V9.6776C6.1164 9.6533 5.9367 9.6281 5.7642 9.6011C5.7573 9.5996 5.7504 9.5984 5.7435 9.5975ZM4.8 7.9598V9.4217C4.4685 9.3506 4.1679 9.275 3.9 9.1964V7.7525C4.1802 7.8281 4.4814 7.8974 4.8 7.9598ZM3.3 7.5692V8.9945C2.8284 8.8124 2.5242 8.6264 2.4252 8.4608L2.4051 8.4272C2.4033 8.4179 2.4003 8.408 2.4 8.3987V7.1564C2.6397 7.3073 2.9433 7.445 3.3 7.5692ZM10.4952 8.3939C10.7973 8.3882 11.0994 8.3789 11.4 8.3651V9.8615C11.0058 9.881 10.605 9.8918 10.2 9.896V8.3984C10.2825 8.3975 10.365 8.3963 10.4475 8.3948C10.4634 8.3945 10.4793 8.3942 10.4952 8.3939ZM14.3721 9.545C14.2404 9.5678 14.1075 9.5903 13.971 9.611C13.8927 9.623 13.8126 9.6344 13.7322 9.6458C13.6563 9.6566 13.5774 9.6659 13.5003 9.6758V8.1935C13.8096 8.1563 14.1099 8.114 14.4003 8.0669V9.5399C14.3907 9.5417 14.3814 9.5435 14.3721 9.545ZM12.3408 9.8012C12.2289 9.8105 12.1134 9.8165 12 9.8246V8.3312C12.3042 8.3111 12.6048 8.2871 12.9 8.2583V9.7466C12.7257 9.7649 12.5517 9.7832 12.3726 9.7982C12.3618 9.7991 12.3516 9.8003 12.3408 9.8012ZM15.7692 9.2387C15.6198 9.2804 15.4617 9.3194 15.3003 9.3575C15.2256 9.3749 15.1494 9.3923 15.0714 9.4091C15.0483 9.4142 15.0237 9.4187 15.0003 9.4238V7.9601C15.3189 7.8974 15.6201 7.8284 15.9003 7.7528V9.2021C15.8571 9.2141 15.8136 9.2264 15.7692 9.2387ZM17.3967 6.3194C17.3691 6.5231 16.9074 6.794 16.0833 7.0487C15.0219 7.3766 13.3611 7.6769 11.2563 7.7699C11.1486 7.7744 11.0412 7.7789 10.9314 7.7825C10.8417 7.7855 10.7517 7.7882 10.6602 7.7906C10.4118 7.796 10.1598 7.7999 9.9 7.7999C9.6402 7.7999 9.3882 7.796 9.1398 7.7903C9.0486 7.7882 8.9586 7.7852 8.8686 7.7822C8.7585 7.7789 8.6511 7.7741 8.5437 7.7696C6.4389 7.6766 4.7778 7.3763 3.7167 7.0484C2.8992 6.7958 2.4384 6.527 2.4042 6.3242C2.4057 6.3185 2.4057 6.3137 2.4093 6.3065C2.4297 6.3116 2.4525 6.3158 2.4732 6.3209C2.5905 6.3488 2.7108 6.3758 2.8332 6.4016C3.4293 6.53 4.0899 6.6353 4.7937 6.7157C4.7961 6.7157 4.7979 6.7169 4.8 6.7169L4.8015 6.7166C5.2809 6.7712 5.7783 6.8141 6.2889 6.8444C6.2928 6.8444 6.2961 6.8465 6.3 6.8465C6.3021 6.8465 6.3036 6.8453 6.3057 6.8453C6.6732 6.8669 7.0455 6.8828 7.4223 6.8912C7.653 6.8969 7.8795 6.8999 8.1 6.8999C8.2575 6.8999 8.4189 6.8981 8.5818 6.8951C10.7616 6.8615 12.7818 6.6023 14.1876 6.2006C14.2524 6.1823 14.3157 6.1634 14.3781 6.1445C14.4162 6.1328 14.4552 6.1214 14.4921 6.1097C14.6007 6.0749 14.7048 6.0392 14.8053 6.002C14.8227 5.9954 14.8392 5.9888 14.8566 5.9822C14.9415 5.9501 15.0231 5.9168 15.1011 5.8829C15.1236 5.873 15.1467 5.8634 15.1686 5.8535C15.2517 5.816 15.3321 5.7776 15.4065 5.7377C15.4401 5.72 15.4692 5.7017 15.5007 5.6837C15.5367 5.663 15.5727 5.642 15.606 5.6207C15.6249 5.6087 15.6474 5.5973 15.6654 5.5853C17.0085 5.8766 17.3625 6.1952 17.3967 6.3194ZM8.1 1.4999C13.0467 1.4999 15.5487 2.2787 15.5955 2.7257C15.5592 2.9285 15.0987 3.1964 14.2833 3.4484C13.2219 3.7763 11.5611 4.0766 9.4563 4.1696C9.3486 4.1741 9.2412 4.1786 9.1314 4.1822C9.0417 4.1852 8.9517 4.1879 8.8602 4.1903C8.6118 4.196 8.3598 4.1999 8.1 4.1999C7.8402 4.1999 7.5882 4.196 7.3398 4.1903C7.2486 4.1882 7.1586 4.1852 7.0686 4.1822C6.9585 4.1789 6.8511 4.1741 6.7437 4.1696C4.6389 4.0766 2.9778 3.7763 1.9167 3.4484C1.101 3.1964 0.6408 2.9285 0.6045 2.7257C0.6513 2.2787 3.1533 1.4999 8.1 1.4999ZM0.6 4.7987V3.5564C0.8397 3.7073 1.1433 3.845 1.5 3.9692V5.4056C0.9165 5.1869 0.6006 4.9676 0.6 4.7987ZM2.0532 8.9504C2.0577 8.9552 2.0646 8.9594 2.0691 8.9642C2.4798 9.3788 3.3303 9.7046 4.389 9.9476C4.4133 9.9533 4.4391 9.9587 4.4637 9.9644C4.5414 9.9818 4.6203 9.9989 4.7001 10.0154C5.6724 10.2224 6.8331 10.3721 8.0976 10.4462L8.0997 10.4465L8.1009 10.4462C8.5071 10.4699 8.9226 10.4864 9.3468 10.4936C9.5346 10.4975 9.7194 10.4999 9.9 10.4999C10.107 10.4999 10.3194 10.4975 10.5354 10.4924C10.9278 10.4843 11.3145 10.4681 11.6958 10.4459L11.7 10.4468C11.7027 10.4468 11.7048 10.4453 11.7075 10.4453C12.9753 10.3706 14.1648 10.2194 15.1707 10.0019C14.9529 10.1159 14.6547 10.2338 14.2833 10.3487C13.1628 10.6949 11.3733 11.0102 9.099 11.0834C9.0315 11.0855 8.9649 11.0879 8.8965 11.0897C8.823 11.0915 8.7483 11.0927 8.6736 11.0942C8.4849 11.0972 8.295 11.0999 8.1 11.0999C7.8402 11.0999 7.5882 11.096 7.3398 11.0903C7.2486 11.0882 7.1586 11.0852 7.0686 11.0822C6.9585 11.0789 6.8511 11.0741 6.7437 11.0696C4.6389 10.9766 2.9778 10.6763 1.9167 10.3484C1.0917 10.0934 0.63 9.8222 0.6033 9.6185C0.6366 9.5057 0.9399 9.2234 2.0532 8.9504ZM0.6 11.6987V10.4564C0.8397 10.6073 1.1433 10.745 1.5 10.8692V12.2999L1.3287 12.2333L1.3251 12.2369C0.8541 12.0416 0.6006 11.8499 0.6 11.6987ZM1.5 14.9987V13.7564C1.7397 13.9073 2.0433 14.045 2.4 14.1692V15.6056C1.8165 15.3869 1.5006 15.1676 1.5 14.9987ZM15.6 15.6056V14.1695C15.9567 14.0453 16.2603 13.9076 16.5 13.7567V14.9981C16.4997 15.167 16.1835 15.3866 15.6 15.6056ZM16.4961 12.923C16.4634 13.1261 16.0026 13.3955 15.1833 13.6487C14.1219 13.9766 12.4611 14.2769 10.3563 14.3699C10.2486 14.3744 10.1412 14.3789 10.0314 14.3825C9.9417 14.3855 9.8517 14.3882 9.7602 14.3906C9.5118 14.396 9.2598 14.3999 9 14.3999C8.7402 14.3999 8.4879 14.396 8.2392 14.3903C8.1489 14.3882 8.0598 14.3852 7.9707 14.3822C7.86 14.3786 7.752 14.3741 7.6437 14.3696C5.5389 14.2766 3.8781 13.9763 2.8167 13.6484C2.0232 13.4033 1.5648 13.1429 1.5072 12.9419C1.5966 12.9731 1.6893 13.0034 1.7844 13.0331C1.794 13.0361 1.8036 13.0391 1.8132 13.0418C1.8942 13.0667 1.977 13.0907 2.0619 13.1141C2.094 13.1231 2.1264 13.1321 2.1591 13.1408C2.2071 13.1537 2.2563 13.166 2.3055 13.1786C3.3981 13.4585 4.7928 13.6568 6.2985 13.7459L6.3 13.7462L6.3009 13.7459C6.7659 13.7735 7.2408 13.7906 7.7208 13.7963C7.8486 13.7987 7.9755 13.7999 8.1 13.7999C8.2653 13.7999 8.4345 13.7978 8.6058 13.7948C9.0435 13.7876 9.4755 13.7714 9.8979 13.7462L9.9003 13.7468L9.9042 13.7459C10.4187 13.715 10.9167 13.6709 11.3952 13.616C11.397 13.616 11.3985 13.6169 11.4003 13.6169C11.4069 13.6169 11.4123 13.6136 11.4189 13.613C11.9517 13.5515 12.4569 13.4759 12.9258 13.388C13.0224 13.3703 13.1175 13.352 13.2117 13.3331C13.2327 13.3289 13.2537 13.3247 13.2747 13.3202C14.1606 13.1384 14.9274 12.9029 15.4536 12.611C15.4824 12.5954 15.5094 12.5792 15.5367 12.5633C15.57 12.5435 15.6018 12.5234 15.6327 12.503C15.6615 12.4844 15.6948 12.4664 15.7212 12.4475C16.3134 12.6587 16.4766 12.8477 16.4961 12.923ZM16.5 9.0056V7.5695C16.8567 7.4453 17.1603 7.3076 17.4 7.1567V8.3981C17.3997 8.567 17.0835 8.7866 16.5 9.0056Z" fill="black"/>
</svg>
