<svg width="20" height="20" viewBox="0 0 20 20" fill="none" xmlns="http://www.w3.org/2000/svg">
<path d="M17.1085 5.83349H15.8335V1.66683C15.8337 1.53032 15.8004 1.39586 15.7364 1.27526C15.6725 1.15465 15.5799 1.0516 15.4668 0.97516C15.3542 0.899149 15.2247 0.85182 15.0897 0.837296C14.9546 0.822771 14.818 0.841492 14.6918 0.891827L2.19183 5.89183C2.0795 5.94158 1.97768 6.01228 1.89183 6.10016C1.57329 6.27918 1.30767 6.53913 1.12184 6.85374C0.935999 7.16834 0.836533 7.52645 0.833496 7.89183V17.1085C0.83569 17.6537 1.05325 18.176 1.43879 18.5615C1.82433 18.9471 2.3466 19.1646 2.89183 19.1668H17.1085C17.6537 19.1646 18.176 18.9471 18.5615 18.5615C18.9471 18.176 19.1646 17.6537 19.1668 17.1085V7.89183C19.1646 7.3466 18.9471 6.82433 18.5615 6.43879C18.176 6.05325 17.6537 5.83569 17.1085 5.83349ZM14.1668 5.83349H6.82516L14.1668 2.90016V5.83349ZM17.5002 14.1668H14.1668C13.7248 14.1668 13.3009 13.9912 12.9883 13.6787C12.6758 13.3661 12.5002 12.9422 12.5002 12.5002C12.5002 12.0581 12.6758 11.6342 12.9883 11.3216C13.3009 11.0091 13.7248 10.8335 14.1668 10.8335H17.5002V14.1668ZM14.1668 9.16683C13.2828 9.16683 12.4349 9.51802 11.8098 10.1431C11.1847 10.7683 10.8335 11.6161 10.8335 12.5002C10.8335 13.3842 11.1847 14.2321 11.8098 14.8572C12.4349 15.4823 13.2828 15.8335 14.1668 15.8335H17.5002V17.1085C17.5002 17.2124 17.4589 17.312 17.3854 17.3854C17.312 17.4589 17.2124 17.5002 17.1085 17.5002H2.89183C2.78795 17.5002 2.68833 17.4589 2.61488 17.3854C2.54143 17.312 2.50016 17.2124 2.50016 17.1085V7.89183C2.50016 7.84039 2.51029 7.78946 2.52998 7.74194C2.54966 7.69442 2.57851 7.65125 2.61488 7.61488C2.65125 7.57851 2.69443 7.54966 2.74194 7.52997C2.78946 7.51029 2.84039 7.50016 2.89183 7.50016H17.1085C17.1599 7.50016 17.2109 7.51029 17.2584 7.52997C17.3059 7.54966 17.3491 7.57851 17.3854 7.61488C17.4218 7.65125 17.4507 7.69442 17.4703 7.74194C17.49 7.78946 17.5002 7.84039 17.5002 7.89183V9.16683H14.1668Z" fill="black"/>
<path d="M14.9998 13.3332C15.4601 13.3332 15.8332 12.9601 15.8332 12.4998C15.8332 12.0396 15.4601 11.6665 14.9998 11.6665C14.5396 11.6665 14.1665 12.0396 14.1665 12.4998C14.1665 12.9601 14.5396 13.3332 14.9998 13.3332Z" fill="black"/>
</svg>
