<svg width="18" height="20" viewBox="0 0 18 20" fill="none" xmlns="http://www.w3.org/2000/svg">
<path d="M13.1665 11.6662C13.1665 11.8872 13.0787 12.0992 12.9224 12.2554C12.7661 12.4117 12.5542 12.4995 12.3332 12.4995H5.6665C5.44549 12.4995 5.23353 12.4117 5.07725 12.2554C4.92097 12.0992 4.83317 11.8872 4.83317 11.6662C4.83317 11.4452 4.92097 11.2332 5.07725 11.0769C5.23353 10.9207 5.44549 10.8329 5.6665 10.8329H12.3332C12.5542 10.8329 12.7661 10.9207 12.9224 11.0769C13.0787 11.2332 13.1665 11.4452 13.1665 11.6662ZM9.83317 14.1662H5.6665C5.44549 14.1662 5.23353 14.254 5.07725 14.4103C4.92097 14.5665 4.83317 14.7785 4.83317 14.9995C4.83317 15.2205 4.92097 15.4325 5.07725 15.5888C5.23353 15.7451 5.44549 15.8328 5.6665 15.8328H9.83317C10.0542 15.8328 10.2661 15.7451 10.4224 15.5888C10.5787 15.4325 10.6665 15.2205 10.6665 14.9995C10.6665 14.7785 10.5787 14.5665 10.4224 14.4103C10.2661 14.254 10.0542 14.1662 9.83317 14.1662ZM17.3332 8.73702V15.8328C17.3318 16.9375 16.8924 17.9965 16.1113 18.7777C15.3302 19.5588 14.2712 19.9982 13.1665 19.9995H4.83317C3.72851 19.9982 2.66947 19.5588 1.88835 18.7777C1.10724 17.9965 0.667827 16.9375 0.666504 15.8328V4.16619C0.667827 3.06153 1.10724 2.00249 1.88835 1.22138C2.66947 0.440265 3.72851 0.000854139 4.83317 -0.000469074H8.59567C9.36202 -0.00244151 10.1212 0.147521 10.8292 0.440747C11.5372 0.733972 12.1801 1.16464 12.7207 1.70786L15.624 4.61286C16.1675 5.15306 16.5985 5.79574 16.8919 6.50367C17.1852 7.2116 17.3352 7.97071 17.3332 8.73702ZM11.5423 2.88619C11.2801 2.63216 10.9856 2.41363 10.6665 2.2362V5.83286C10.6665 6.05387 10.7543 6.26583 10.9106 6.42211C11.0669 6.57839 11.2788 6.66619 11.4998 6.66619H15.0965C14.919 6.34718 14.7001 6.05298 14.4457 5.79119L11.5423 2.88619ZM15.6665 8.73702C15.6665 8.59952 15.6398 8.46786 15.6273 8.33286H11.4998C10.8368 8.33286 10.2009 8.06946 9.73207 7.60062C9.26323 7.13178 8.99984 6.4959 8.99984 5.83286V1.70536C8.86484 1.69286 8.73234 1.6662 8.59567 1.6662H4.83317C4.17013 1.6662 3.53424 1.92959 3.0654 2.39843C2.59656 2.86727 2.33317 3.50315 2.33317 4.16619V15.8328C2.33317 16.4959 2.59656 17.1318 3.0654 17.6006C3.53424 18.0695 4.17013 18.3328 4.83317 18.3328H13.1665C13.8295 18.3328 14.4654 18.0695 14.9343 17.6006C15.4031 17.1318 15.6665 16.4959 15.6665 15.8328V8.73702Z" fill="black"/>
</svg>
