<svg width="27" height="14" viewBox="0 0 27 14" fill="none" xmlns="http://www.w3.org/2000/svg">
<path d="M0.95983 8.83287L5.18283 12.949C5.28428 13.0477 5.40497 13.126 5.53794 13.1795C5.67091 13.2329 5.81354 13.2604 5.9576 13.2604C6.10165 13.2604 6.24428 13.2329 6.37725 13.1795C6.51023 13.126 6.63092 13.0477 6.73236 12.949C6.83464 12.8512 6.91582 12.7347 6.97122 12.6065C7.02662 12.4782 7.05514 12.3406 7.05514 12.2016C7.05514 12.0626 7.02662 11.925 6.97122 11.7968C6.91582 11.6685 6.83464 11.552 6.73236 11.4542L2.84763 7.68539H25.0975C25.3869 7.68539 25.6645 7.57448 25.8691 7.37706C26.0738 7.17963 26.1887 6.91187 26.1887 6.63266C26.1887 6.35346 26.0738 6.0857 25.8691 5.88827C25.6645 5.69085 25.3869 5.57993 25.0975 5.57993H2.78216L6.73236 1.76905C6.92582 1.57326 7.03374 1.31315 7.03374 1.04266C7.03374 0.772173 6.92582 0.512062 6.73236 0.316279C6.63092 0.217608 6.51023 0.139291 6.37725 0.0858448C6.24428 0.0323991 6.10165 0.00488281 5.9576 0.00488281C5.81354 0.00488281 5.67091 0.0323991 5.53794 0.0858448C5.40497 0.139291 5.28428 0.217608 5.18283 0.316279L0.95983 4.36929C0.346783 4.96146 0.00244141 5.76416 0.00244141 6.60108C0.00244141 7.43801 0.346783 8.24071 0.95983 8.83287Z" fill="#777777"/>
</svg>
