<svg width="18" height="9" viewBox="0 0 18 9" fill="none" xmlns="http://www.w3.org/2000/svg">
<path d="M8.99916 8.87746C8.50637 8.87834 8.01824 8.78208 7.56268 8.59419C7.10712 8.40631 6.69305 8.13047 6.34416 7.78246L0.216662 1.65495C0.0754346 1.51373 -0.00390625 1.32218 -0.00390625 1.12245C-0.00390625 0.922728 0.0754346 0.731181 0.216662 0.589954C0.35789 0.448726 0.549436 0.369385 0.749162 0.369385C0.948888 0.369385 1.14043 0.448726 1.28166 0.589954L7.40916 6.71746C7.83104 7.13881 8.40291 7.37548 8.99916 7.37548C9.59541 7.37548 10.1673 7.13881 10.5892 6.71746L16.7167 0.589954C16.8579 0.448726 17.0494 0.369385 17.2492 0.369385C17.4489 0.369385 17.6404 0.448726 17.7817 0.589954C17.9229 0.731181 18.0022 0.922728 18.0022 1.12245C18.0022 1.32218 17.9229 1.51373 17.7817 1.65495L11.6542 7.78246C11.3053 8.13047 10.8912 8.40631 10.4356 8.59419C9.98007 8.78208 9.49195 8.87834 8.99916 8.87746Z" fill="#1F78B4"/>
</svg>
