<svg width="24" height="24" viewBox="0 0 24 24" fill="none" xmlns="http://www.w3.org/2000/svg">
<path d="M9.8792 18.1217C10.1578 18.4005 10.4886 18.6216 10.8527 18.7725C11.2168 18.9234 11.6071 19.001 12.0012 19.001C12.3953 19.001 12.7856 18.9234 13.1497 18.7725C13.5138 18.6216 13.8446 18.4005 14.1232 18.1217L17.3342 14.9107C17.5064 14.7203 17.5987 14.471 17.5921 14.2144C17.5855 13.9578 17.4805 13.7136 17.2988 13.5322C17.1171 13.3509 16.8726 13.2464 16.616 13.2404C16.3594 13.2343 16.1102 13.3272 15.9202 13.4998L12.9942 16.4267L13.0012 0.999983C13.0012 0.734771 12.8958 0.480421 12.7083 0.292888C12.5208 0.105355 12.2664 0 12.0012 0V0C11.736 0 11.4816 0.105355 11.2941 0.292888C11.1066 0.480421 11.0012 0.734771 11.0012 0.999983L10.9922 16.4077L8.0822 13.4998C7.89456 13.3123 7.64012 13.207 7.37485 13.2071C7.10958 13.2072 6.85521 13.3126 6.6677 13.5003C6.48019 13.6879 6.37491 13.9423 6.375 14.2076C6.37509 14.4729 6.48056 14.7272 6.6682 14.9147L9.8792 18.1217Z" fill="black"/>
<path d="M23 16C22.7348 16 22.4804 16.1054 22.2929 16.2929C22.1054 16.4804 22 16.7348 22 17V20.9999C22 21.2651 21.8946 21.5195 21.7071 21.707C21.5196 21.8946 21.2652 21.9999 21 21.9999H3C2.73478 21.9999 2.48043 21.8946 2.29289 21.707C2.10536 21.5195 2 21.2651 2 20.9999V17C2 16.7348 1.89464 16.4804 1.70711 16.2929C1.51957 16.1054 1.26522 16 1 16C0.734784 16 0.48043 16.1054 0.292893 16.2929C0.105357 16.4804 0 16.7348 0 17L0 20.9999C0 21.7956 0.31607 22.5586 0.87868 23.1212C1.44129 23.6838 2.20435 23.9999 3 23.9999H21C21.7956 23.9999 22.5587 23.6838 23.1213 23.1212C23.6839 22.5586 24 21.7956 24 20.9999V17C24 16.7348 23.8946 16.4804 23.7071 16.2929C23.5196 16.1054 23.2652 16 23 16Z" fill="black"/>
</svg>
