<svg width="16" height="9" viewBox="0 0 16 9" fill="none" xmlns="http://www.w3.org/2000/svg">
<path d="M0.192559 1.7311L5.63923 7.30683C5.94886 7.62461 6.3167 7.87673 6.72167 8.04875C7.12664 8.22078 7.56078 8.30933 7.99923 8.30933C8.43767 8.30933 8.87182 8.22078 9.27678 8.04875C9.68175 7.87673 10.0496 7.62461 10.3592 7.30683L15.8059 1.7311C15.9314 1.60259 16.002 1.4283 16.002 1.24655C16.002 1.06481 15.9314 0.890517 15.8059 0.762006C15.6804 0.633496 15.5101 0.561299 15.3326 0.561299C15.155 0.561299 14.9848 0.633496 14.8592 0.762006L9.41256 6.33773C9.03756 6.72114 8.52923 6.9365 7.99923 6.9365C7.46922 6.9365 6.96089 6.72114 6.58589 6.33773L1.13923 0.762006C1.07725 0.69804 1.00352 0.647267 0.922276 0.61262C0.841037 0.577972 0.7539 0.560134 0.665892 0.560134C0.577884 0.560134 0.490746 0.577972 0.409508 0.61262C0.328268 0.647267 0.254535 0.69804 0.192559 0.762006C0.130074 0.82545 0.0804758 0.90093 0.0466309 0.984095C0.012785 1.06726 -0.00464058 1.15646 -0.00464058 1.24655C-0.00464058 1.33665 0.012785 1.42585 0.0466309 1.50901C0.0804758 1.59218 0.130074 1.66766 0.192559 1.7311Z" fill="black"/>
</svg>
