<svg width="30" height="30" viewBox="0 0 30 30" fill="none" xmlns="http://www.w3.org/2000/svg">
<path d="M18.7481 3.1281C15.9793 5.76009 13.2109 8.39208 10.4425 11.0244L18.2974 10.9879L22.459 7.03144C21.222 5.73032 19.9851 4.42921 18.7481 3.1281ZM24.7519 17.6859V21.8833H28.1602V17.6859H24.7519ZM23.2899 21.8833V17.6859H21.5059V21.8833H23.2899ZM21.4325 16.2236H24.0209H25.2976V12.4868C18.8721 12.4868 12.4339 12.4868 6.02184 12.4868C5.06018 12.4868 5.06018 11.0244 6.02184 11.0244H8.32536L12.6946 6.87057H4.09143C2.8541 6.87057 1.83893 7.88574 1.83893 9.12307V24.9178C1.83893 26.1552 2.8541 27.17 4.09143 27.17H23.0451C24.2824 27.17 25.2976 26.1552 25.2976 24.9178V23.3457H21.4325C20.6682 23.3457 20.0435 22.7196 20.0435 21.9567V17.6125C20.0435 16.8486 20.6693 16.2236 21.4325 16.2236ZM26.7596 16.2236H28.2332C28.9989 16.2236 29.6226 16.8472 29.6226 17.6125V21.9567C29.6226 22.722 28.9989 23.3457 28.2332 23.3457H26.7596V24.9178C26.7596 26.9623 25.0896 28.6323 23.0451 28.6323H4.09143C2.04693 28.6323 0.376953 26.9623 0.376953 24.9178V9.12307C0.376953 7.07856 2.04693 5.40859 4.09143 5.40859H14.2325L18.2715 1.56868C18.5631 1.29088 19.0248 1.30257 19.3026 1.59419L22.9289 5.40859H23.0451C25.0896 5.40859 26.7596 7.07856 26.7596 9.12307V11.7554V16.2236ZM20.3759 11.0244H25.2976V9.12307C25.2976 8.33184 24.878 7.60404 24.2059 7.19585C24.1782 7.34006 24.107 7.47683 23.9929 7.58561L20.3759 11.0244Z" fill="black"/>
</svg>
