<svg width="20" height="20" viewBox="0 0 20 20" fill="none" xmlns="http://www.w3.org/2000/svg">
<path fill-rule="evenodd" clip-rule="evenodd" d="M1.5625 10C1.5625 5.3401 5.3401 1.5625 10 1.5625C14.6599 1.5625 18.4375 5.3401 18.4375 10C18.4375 14.6599 14.6599 18.4375 10 18.4375C5.3401 18.4375 1.5625 14.6599 1.5625 10ZM10 0.4375C4.71878 0.4375 0.4375 4.71878 0.4375 10C0.4375 15.2812 4.71878 19.5625 10 19.5625C15.2812 19.5625 19.5625 15.2812 19.5625 10C19.5625 4.71878 15.2812 0.4375 10 0.4375ZM10 14C12.2091 14 14 12.2091 14 10C14 7.79086 12.2091 6 10 6C7.79086 6 6 7.79086 6 10C6 12.2091 7.79086 14 10 14Z" fill="black"/>
</svg>
