<svg width="20" height="20" viewBox="0 0 20 20" fill="none" xmlns="http://www.w3.org/2000/svg">
<path d="M18.3008 10.7292C18.1401 12.629 17.3347 14.4168 16.0182 15.796C14.7017 17.1752 12.9532 18.0628 11.0629 18.3116C9.17256 18.5604 7.25397 18.1555 5.62544 17.1639C3.99691 16.1724 2.75632 14.6539 2.1095 12.8603C1.46267 11.0667 1.4485 9.10592 2.06932 7.30319C2.69014 5.50046 3.90864 3.96416 5.52266 2.94917C7.13668 1.93419 9.04921 1.50153 10.9429 1.72298C12.8367 1.94443 14.5978 2.80668 15.9341 4.16667H13.3324C13.1114 4.16667 12.8994 4.25446 12.7432 4.41074C12.5869 4.56703 12.4991 4.77899 12.4991 5C12.4991 5.22101 12.5869 5.43298 12.7432 5.58926C12.8994 5.74554 13.1114 5.83333 13.3324 5.83333H16.7849C17.1953 5.83311 17.5888 5.67 17.8789 5.37984C18.1691 5.08967 18.3322 4.69619 18.3324 4.28583V0.833333C18.3324 0.61232 18.2446 0.400358 18.0883 0.244078C17.9321 0.0877974 17.7201 0 17.4991 0V0C17.2781 0 17.0661 0.0877974 16.9098 0.244078C16.7535 0.400358 16.6658 0.61232 16.6658 0.833333V2.565C14.9896 1.06727 12.8573 0.178736 10.6136 0.0430927C8.36996 -0.092551 6.14612 0.532631 4.30179 1.81753C2.45746 3.10242 1.10049 4.9719 0.450342 7.1236C-0.199808 9.27529 -0.105117 11.5834 0.719099 13.6746C1.54331 15.7658 3.04886 17.5179 4.99224 18.6474C6.93562 19.7769 9.2032 20.2178 11.4282 19.8988C13.6533 19.5798 15.7056 18.5196 17.2534 16.8896C18.8012 15.2597 19.7539 13.1552 19.9574 10.9167C19.9682 10.8006 19.9547 10.6836 19.9177 10.5731C19.8807 10.4625 19.8212 10.3609 19.7428 10.2747C19.6644 10.1884 19.5689 10.1195 19.4624 10.0722C19.3558 10.0249 19.2406 10.0003 19.1241 10C18.9208 9.99755 18.7239 10.0709 18.5717 10.2057C18.4195 10.3404 18.3229 10.5271 18.3008 10.7292Z" fill="black"/>
</svg>
