<svg width="23" height="23" viewBox="0 0 23 23" fill="none" xmlns="http://www.w3.org/2000/svg">
<path d="M15.3815 5.03133C16.4401 5.03133 17.2982 4.17321 17.2982 3.11466C17.2982 2.05612 16.4401 1.198 15.3815 1.198C14.323 1.198 13.4648 2.05612 13.4648 3.11466C13.4648 4.17321 14.323 5.03133 15.3815 5.03133Z" fill="white"/>
<path d="M20.0288 5.75016C19.5496 5.51058 18.9746 5.67829 18.735 6.15745L17.8965 7.7387L14.2069 5.41475C14.0632 5.31891 13.8954 5.271 13.7038 5.271H9.63086C9.27149 5.271 8.96003 5.46266 8.79232 5.77412L7.23503 8.64912C6.97149 9.10433 7.16315 9.70329 7.61836 9.94287C7.76211 10.0147 7.92982 10.0627 8.07357 10.0627C8.40899 10.0627 8.7444 9.871 8.91211 9.55954L10.2059 7.18766H11.6194L7.37878 15.0939H3.40169C2.87461 15.0939 2.44336 15.5252 2.44336 16.0522C2.44336 16.5793 2.87461 17.0106 3.40169 17.0106H7.95378C8.31315 17.0106 8.62461 16.8189 8.79232 16.5075L10.4694 13.4168L13.2246 15.9804L13.009 20.796C12.9611 21.3231 13.3684 21.7783 13.8954 21.8022C13.9194 21.8022 13.9194 21.8022 13.9434 21.8022C14.4465 21.8022 14.8777 21.395 14.9017 20.8918L15.1413 15.621C15.1652 15.3335 15.0454 15.07 14.8298 14.8783L12.5059 12.722L14.9496 8.16995L17.7288 9.91891C17.9444 10.0627 18.2319 10.1106 18.4954 10.0387C18.759 9.96683 18.9746 9.79912 19.0944 9.55954L20.4121 7.04391C20.6757 6.5887 20.5079 6.0137 20.0288 5.75016Z" fill="white"/>
</svg>
