<svg width="15" height="15" viewBox="0 0 15 15" fill="none" xmlns="http://www.w3.org/2000/svg">
<g clip-path="url(#clip0_2402_3502)">
<path d="M14.3753 6.875C14.2096 6.875 14.0506 6.94085 13.9334 7.05806C13.8162 7.17527 13.7503 7.33424 13.7503 7.5C13.7554 8.9533 13.2556 10.3632 12.3363 11.4888C11.417 12.6145 10.1353 13.3858 8.71025 13.6711C7.28523 13.9564 5.80535 13.738 4.52356 13.053C3.24177 12.3681 2.23765 11.2593 1.68284 9.91605C1.12802 8.57281 1.05695 7.07858 1.48176 5.68876C1.90658 4.29893 2.80092 3.09979 4.01191 2.29629C5.2229 1.4928 6.67536 1.13485 8.12103 1.28361C9.56671 1.43237 10.9158 2.07861 11.9378 3.11188C11.9173 3.11748 11.8964 3.12187 11.8753 3.125H10.0003C9.83456 3.125 9.67559 3.19085 9.55838 3.30806C9.44117 3.42527 9.37532 3.58424 9.37532 3.75C9.37532 3.91576 9.44117 4.07473 9.55838 4.19194C9.67559 4.30915 9.83456 4.375 10.0003 4.375H11.8753C12.3726 4.375 12.8495 4.17746 13.2011 3.82583C13.5528 3.47419 13.7503 2.99728 13.7503 2.5V0.625C13.7503 0.45924 13.6845 0.300269 13.5673 0.183058C13.4501 0.065848 13.2911 0 13.1253 0C12.9596 0 12.8006 0.065848 12.6834 0.183058C12.5662 0.300269 12.5003 0.45924 12.5003 0.625V1.91563C11.2207 0.771581 9.58714 0.101354 7.87273 0.0169391C6.15831 -0.0674758 4.46685 0.439036 3.08099 1.45183C1.69514 2.46463 0.698837 3.92236 0.258581 5.58144C-0.181675 7.24052 -0.0392198 9.00043 0.662143 10.5671C1.3635 12.1338 2.58129 13.4123 4.11199 14.189C5.6427 14.9657 7.39361 15.1936 9.07213 14.8345C10.7507 14.4755 12.2551 13.5513 13.3341 12.2163C14.4131 10.8813 15.0013 9.2165 15.0003 7.5C15.0003 7.33424 14.9345 7.17527 14.8173 7.05806C14.7001 6.94085 14.5411 6.875 14.3753 6.875Z" fill="#ABABAB"/>
<path d="M7.5 3.75C7.33424 3.75 7.17527 3.81585 7.05806 3.93306C6.94085 4.05027 6.875 4.20924 6.875 4.375V7.5C6.87504 7.66575 6.94091 7.82469 7.05813 7.94187L8.93313 9.81687C9.051 9.93072 9.20888 9.99372 9.37275 9.9923C9.53663 9.99087 9.69339 9.92514 9.80927 9.80926C9.92515 9.69338 9.99088 9.53662 9.9923 9.37275C9.99372 9.20888 9.93073 9.051 9.81688 8.93313L8.125 7.24125V4.375C8.125 4.20924 8.05915 4.05027 7.94194 3.93306C7.82473 3.81585 7.66576 3.75 7.5 3.75Z" fill="#ABABAB"/>
</g>
<defs>
<clipPath id="clip0_2402_3502">
<rect width="15" height="15" fill="white"/>
</clipPath>
</defs>
</svg>
