<svg width="20" height="20" viewBox="0 0 20 20" fill="none" xmlns="http://www.w3.org/2000/svg">
<path fill-rule="evenodd" clip-rule="evenodd" d="M18.6541 11.9424H17.5003C17.1926 11.9424 16.9234 12.2501 16.9234 12.5193V16.3654C16.9234 16.6731 16.6541 16.9424 16.3465 16.9424H3.65415C3.34645 16.9424 3.07722 16.6731 3.07722 16.3654V12.5193C3.07722 12.2501 2.80799 11.9424 2.5003 11.9424H1.34645C1.03876 11.9424 0.769531 12.2501 0.769531 12.5193V17.7116C0.769531 18.5577 1.46184 19.2501 2.30799 19.2501H17.6926C18.5388 19.2501 19.2311 18.5577 19.2311 17.7116V12.5193C19.2311 12.2501 18.9618 11.9424 18.6541 11.9424ZM10.3849 0.942364C10.1541 0.711595 9.80799 0.711595 9.57722 0.942364L4.38492 6.13467C4.15415 6.36544 4.15415 6.7116 4.38492 6.94236L5.19261 7.75006C5.42338 7.98083 5.76953 7.98083 6.0003 7.75006L8.15415 5.59621C8.38492 5.36544 8.84645 5.51929 8.84645 5.86544V14.0193C8.84645 14.327 9.07722 14.5962 9.38492 14.5962H10.5388C10.8465 14.5962 11.1541 14.2885 11.1541 14.0193V5.9039C11.1541 5.55775 11.5388 5.4039 11.808 5.63467L13.9618 7.78852C14.1926 8.01929 14.5388 8.01929 14.7695 7.78852L15.5772 6.98083C15.808 6.75006 15.808 6.4039 15.5772 6.17313L10.3849 0.942364Z" fill="white"/>
</svg>
