<svg width="18" height="18" viewBox="0 0 18 18" fill="none" xmlns="http://www.w3.org/2000/svg">
<path d="M7.40939 13.5916C7.61834 13.8007 7.86644 13.9666 8.13951 14.0797C8.41259 14.1929 8.70529 14.2512 9.00088 14.2512C9.29647 14.2512 9.58917 14.1929 9.86225 14.0797C10.1353 13.9666 10.3834 13.8007 10.5924 13.5916L13.0006 11.1834C13.1297 11.0406 13.199 10.8536 13.194 10.6611C13.1891 10.4686 13.1103 10.2854 12.9741 10.1495C12.8378 10.0135 12.6544 9.93508 12.462 9.93055C12.2695 9.92602 12.0826 9.99567 11.9401 10.1251L9.74563 12.3204L9.75088 0.750007C9.75088 0.551093 9.67186 0.360326 9.53121 0.219672C9.39056 0.0790184 9.19979 0 9.00088 0C8.80197 0 8.6112 0.0790184 8.47055 0.219672C8.3299 0.360326 8.25088 0.551093 8.25088 0.750007L8.24413 12.3061L6.06165 10.1251C5.92092 9.98447 5.73008 9.9055 5.53113 9.90557C5.33218 9.90564 5.14141 9.98474 5.00078 10.1255C4.86015 10.2662 4.78118 10.457 4.78125 10.656C4.78132 10.8549 4.86042 11.0457 5.00115 11.1864L7.40939 13.5916Z" fill="#1251F1"/>
<path d="M17.25 12C17.0511 12 16.8603 12.079 16.7197 12.2197C16.579 12.3603 16.5 12.5511 16.5 12.75V15.75C16.5 15.949 16.421 16.1397 16.2803 16.2804C16.1397 16.421 15.9489 16.5001 15.75 16.5001H2.25C2.05109 16.5001 1.86032 16.421 1.71967 16.2804C1.57902 16.1397 1.5 15.949 1.5 15.75V12.75C1.5 12.5511 1.42098 12.3603 1.28033 12.2197C1.13968 12.079 0.948912 12 0.75 12C0.551088 12 0.360322 12.079 0.21967 12.2197C0.0790176 12.3603 0 12.5511 0 12.75L0 15.75C0 16.3468 0.237053 16.9191 0.65901 17.3411C1.08097 17.763 1.65326 18.0001 2.25 18.0001H15.75C16.3467 18.0001 16.919 17.763 17.341 17.3411C17.7629 16.9191 18 16.3468 18 15.75V12.75C18 12.5511 17.921 12.3603 17.7803 12.2197C17.6397 12.079 17.4489 12 17.25 12Z" fill="#1251F1"/>
</svg>
