<svg width="15" height="15" viewBox="0 0 15 15" fill="none" xmlns="http://www.w3.org/2000/svg">
<g clip-path="url(#clip0_1004_11686)">
<path d="M14.5452 5.88693C13.5758 4.30818 11.3708 1.65942 7.50083 1.65942C3.63083 1.65942 1.42583 4.30818 0.45645 5.88693C0.15678 6.37162 -0.00195312 6.9302 -0.00195312 7.50005C-0.00195313 8.0699 0.15678 8.62849 0.45645 9.11318C1.42583 10.6919 3.63083 13.3407 7.50083 13.3407C11.3708 13.3407 13.5758 10.6919 14.5452 9.11318C14.8449 8.62849 15.0036 8.0699 15.0036 7.50005C15.0036 6.9302 14.8449 6.37162 14.5452 5.88693ZM13.4796 8.4588C12.6471 9.81255 10.7627 12.0907 7.50083 12.0907C4.23895 12.0907 2.35458 9.81255 1.52208 8.4588C1.34404 8.17071 1.24973 7.83872 1.24973 7.50005C1.24973 7.16138 1.34404 6.8294 1.52208 6.5413C2.35458 5.18755 4.23895 2.90942 7.50083 2.90942C10.7627 2.90942 12.6471 5.18505 13.4796 6.5413C13.6576 6.8294 13.7519 7.16138 13.7519 7.50005C13.7519 7.83872 13.6576 8.17071 13.4796 8.4588Z" fill="black"/>
<path d="M7.5 4.375C6.88193 4.375 6.27775 4.55828 5.76384 4.90166C5.24994 5.24504 4.8494 5.73309 4.61288 6.30411C4.37635 6.87513 4.31447 7.50346 4.43505 8.10965C4.55563 8.71584 4.85325 9.27266 5.29029 9.7097C5.72733 10.1467 6.28415 10.4444 6.89034 10.5649C7.49654 10.6855 8.12487 10.6236 8.69589 10.3871C9.26691 10.1506 9.75496 9.75005 10.0983 9.23615C10.4417 8.72225 10.625 8.11806 10.625 7.49999C10.624 6.6715 10.2944 5.87722 9.70861 5.29139C9.12278 4.70555 8.3285 4.37599 7.5 4.375ZM7.5 9.37499C7.12916 9.37499 6.76665 9.26502 6.45831 9.059C6.14996 8.85297 5.90964 8.56014 5.76773 8.21752C5.62581 7.87491 5.58868 7.49791 5.66103 7.1342C5.73338 6.77049 5.91195 6.43639 6.17418 6.17417C6.4364 5.91195 6.77049 5.73337 7.13421 5.66103C7.49792 5.58868 7.87492 5.62581 8.21753 5.76772C8.56014 5.90964 8.85298 6.14996 9.05901 6.4583C9.26503 6.76664 9.375 7.12915 9.375 7.49999C9.375 7.99727 9.17746 8.47419 8.82583 8.82582C8.4742 9.17745 7.99728 9.37499 7.5 9.37499Z" fill="black"/>
</g>
<defs>
<clipPath id="clip0_1004_11686">
<rect width="15" height="15" fill="white"/>
</clipPath>
</defs>
</svg>
